<?xml version="1.0" standalone="no"?>
<!DOCTYPE svg PUBLIC "-//W3C//DTD SVG 20010904//EN"
 "http://www.w3.org/TR/2001/REC-SVG-20010904/DTD/svg10.dtd">
<svg version="1.0" xmlns="http://www.w3.org/2000/svg"
 width="2048.000000pt" height="2048.000000pt" viewBox="0 0 2048.000000 2048.000000"
 preserveAspectRatio="xMidYMid meet">
<metadata>
Created by potrace 1.14, written by Peter Selinger 2001-2017
</metadata>
<g transform="translate(0.000000,2048.000000) scale(0.100000,-0.100000)"
fill="#000000" stroke="none">
<path d="M10160 20280 c0 -19 -7 -20 -120 -20 -113 0 -120 -1 -120 -20 0 -19
-7 -20 -125 -20 -118 0 -125 -1 -125 -20 0 -19 -7 -20 -125 -20 -118 0 -125
-1 -125 -20 0 -19 -7 -20 -120 -20 -113 0 -120 -1 -120 -20 0 -19 -7 -20 -165
-20 -158 0 -165 -1 -165 -20 0 -19 -7 -20 -100 -20 -93 0 -100 -1 -100 -20 0
-19 -7 -20 -105 -20 -98 0 -105 -1 -105 -20 0 -18 -7 -20 -80 -20 -73 0 -80
-2 -80 -20 0 -18 -7 -20 -85 -20 -84 0 -85 0 -85 -25 l0 -25 -100 0 c-93 0
-100 -1 -100 -20 0 -18 -7 -20 -85 -20 -78 0 -85 2 -85 20 0 15 7 20 25 20 20
0 25 5 25 25 0 23 -4 25 -45 25 -41 0 -45 -2 -45 -25 0 -24 -3 -25 -60 -25
-53 0 -60 -2 -60 -20 0 -17 -7 -20 -40 -20 -33 0 -40 3 -40 20 0 13 -7 20 -20
20 -13 0 -20 -7 -20 -20 0 -17 -7 -20 -40 -20 -33 0 -40 -3 -40 -20 0 -18 -7
-20 -65 -20 -58 0 -65 -2 -65 -20 0 -17 -7 -20 -40 -20 -33 0 -40 -3 -40 -20
0 -17 -7 -20 -40 -20 -33 0 -40 -3 -40 -20 0 -17 -7 -20 -40 -20 -33 0 -40 -3
-40 -20 0 -17 -7 -20 -40 -20 -33 0 -40 -3 -40 -20 0 -17 -7 -20 -45 -20 -38
0 -45 -3 -45 -20 0 -17 -7 -20 -40 -20 -33 0 -40 -3 -40 -20 0 -17 -7 -20 -40
-20 -33 0 -40 -3 -40 -20 0 -17 -7 -20 -40 -20 -36 0 -40 -2 -40 -25 0 -22 -4
-25 -40 -25 -33 0 -40 -3 -40 -20 0 -17 -7 -20 -45 -20 -38 0 -45 -3 -45 -20
0 -13 -7 -20 -20 -20 -13 0 -20 -7 -20 -20 0 -17 -7 -20 -40 -20 -33 0 -40 -3
-40 -20 0 -17 -7 -20 -40 -20 -33 0 -40 -3 -40 -20 0 -13 -7 -20 -20 -20 -13
0 -20 -7 -20 -20 0 -17 -7 -20 -40 -20 -33 0 -40 -3 -40 -20 0 -13 -7 -20 -20
-20 -13 0 -20 -7 -20 -20 0 -17 -7 -20 -45 -20 -38 0 -45 -3 -45 -20 0 -13 -7
-20 -20 -20 -15 0 -20 -7 -20 -25 0 -22 -4 -25 -40 -25 -33 0 -40 -3 -40 -20
0 -13 -7 -20 -20 -20 -13 0 -20 -7 -20 -20 0 -13 -7 -20 -20 -20 -13 0 -20 -7
-20 -20 0 -13 -7 -20 -20 -20 -13 0 -20 -7 -20 -20 0 -13 -7 -20 -20 -20 -13
0 -20 -7 -20 -20 0 -13 -7 -20 -20 -20 -13 0 -20 -7 -20 -20 0 -17 -7 -20 -45
-20 -38 0 -45 -3 -45 -20 0 -17 -7 -20 -40 -20 -33 0 -40 -3 -40 -20 0 -17 -7
-20 -40 -20 -33 0 -40 -3 -40 -20 0 -13 -7 -20 -20 -20 -13 0 -20 -7 -20 -20
0 -13 -7 -20 -20 -20 -15 0 -20 -7 -20 -25 0 -22 -4 -25 -40 -25 -36 0 -40 3
-40 25 0 18 -5 25 -20 25 -17 0 -20 7 -20 40 0 36 -2 40 -25 40 -18 0 -25 5
-25 20 0 13 -7 20 -20 20 -17 0 -20 7 -20 40 0 33 -3 40 -20 40 -13 0 -20 7
-20 20 0 13 -7 20 -20 20 -17 0 -20 7 -20 40 0 33 -3 40 -20 40 -13 0 -20 7
-20 20 0 13 -7 20 -20 20 -13 0 -20 7 -20 20 0 17 -7 20 -40 20 -36 0 -40 3
-40 25 0 18 -5 25 -20 25 -13 0 -20 7 -20 20 0 13 -7 20 -20 20 -13 0 -20 7
-20 20 0 15 -7 20 -25 20 -18 0 -25 5 -25 20 0 13 -7 20 -20 20 -13 0 -20 7
-20 20 0 18 -7 20 -60 20 -53 0 -60 2 -60 20 0 19 -7 20 -125 20 -118 0 -125
-1 -125 -20 0 -15 7 -20 25 -20 18 0 25 -5 25 -20 0 -15 -7 -20 -25 -20 -22 0
-25 -4 -25 -40 0 -36 3 -40 25 -40 24 0 25 -2 25 -65 0 -58 2 -65 20 -65 17 0
20 -7 20 -40 0 -33 3 -40 20 -40 20 0 20 -7 20 -285 0 -278 0 -285 -20 -285
-18 0 -20 -7 -20 -60 0 -53 -2 -60 -20 -60 -13 0 -20 7 -20 20 0 15 -7 20 -25
20 -18 0 -25 5 -25 20 0 13 -7 20 -20 20 -13 0 -20 7 -20 20 0 17 -7 20 -40
20 -33 0 -40 3 -40 20 0 13 -7 20 -20 20 -13 0 -20 7 -20 20 0 17 -7 20 -40
20 -33 0 -40 3 -40 20 0 17 -7 20 -40 20 -33 0 -40 3 -40 20 0 19 -7 20 -105
20 -98 0 -105 1 -105 20 0 19 -7 20 -205 20 -198 0 -205 -1 -205 -20 0 -13 -7
-20 -20 -20 -13 0 -20 -7 -20 -20 0 -13 7 -20 20 -20 19 0 20 -7 20 -100 0
-93 1 -100 20 -100 18 0 20 -7 20 -85 0 -78 2 -85 20 -85 17 0 20 -7 20 -40 0
-36 3 -40 25 -40 23 0 25 -4 25 -40 0 -33 3 -40 20 -40 17 0 20 -7 20 -40 0
-33 3 -40 20 -40 13 0 20 -7 20 -20 0 -13 7 -20 20 -20 17 0 20 -7 20 -45 0
-38 3 -45 20 -45 13 0 20 -7 20 -20 0 -13 7 -20 20 -20 13 0 20 -7 20 -20 0
-13 7 -20 20 -20 18 0 20 -7 20 -60 0 -53 2 -60 20 -60 13 0 20 -7 20 -20 0
-13 7 -20 20 -20 18 0 20 -7 20 -85 0 -78 2 -85 20 -85 18 0 20 -7 20 -60 0
-53 -2 -60 -20 -60 -19 0 -20 -7 -20 -185 0 -178 -1 -185 -20 -185 -19 0 -20
-7 -20 -160 0 -153 -1 -160 -20 -160 -18 0 -20 -7 -20 -65 0 -58 -2 -65 -20
-65 -17 0 -20 -7 -20 -40 0 -33 -3 -40 -20 -40 -17 0 -20 -7 -20 -40 0 -33 -3
-40 -20 -40 -13 0 -20 -7 -20 -20 0 -13 -7 -20 -20 -20 -13 0 -20 -7 -20 -20
0 -13 -7 -20 -20 -20 -13 0 -20 -7 -20 -20 0 -13 -7 -20 -20 -20 -15 0 -20 -7
-20 -25 0 -23 -4 -25 -45 -25 -38 0 -45 -3 -45 -20 0 -13 -7 -20 -20 -20 -13
0 -20 -7 -20 -20 0 -13 -7 -20 -20 -20 -13 0 -20 -7 -20 -20 0 -13 -7 -20 -20
-20 -13 0 -20 -7 -20 -20 0 -13 -7 -20 -20 -20 -13 0 -20 -7 -20 -20 0 -13 -7
-20 -20 -20 -13 0 -20 -7 -20 -20 0 -13 -7 -20 -20 -20 -13 0 -20 -7 -20 -20
0 -13 -7 -20 -20 -20 -13 0 -20 -7 -20 -20 0 -13 -7 -20 -20 -20 -13 0 -20 -7
-20 -20 0 -13 -7 -20 -20 -20 -15 0 -20 -7 -20 -25 0 -20 -5 -25 -25 -25 -18
0 -25 -5 -25 -20 0 -13 -7 -20 -20 -20 -13 0 -20 -7 -20 -20 0 -13 -7 -20 -20
-20 -13 0 -20 -7 -20 -20 0 -13 -7 -20 -20 -20 -13 0 -20 -7 -20 -20 0 -13 -7
-20 -20 -20 -13 0 -20 -7 -20 -20 0 -13 -7 -20 -20 -20 -13 0 -20 -7 -20 -20
0 -13 -7 -20 -20 -20 -13 0 -20 -7 -20 -20 0 -13 -7 -20 -20 -20 -17 0 -20 -7
-20 -40 0 -33 -3 -40 -20 -40 -13 0 -20 -7 -20 -20 0 -13 -7 -20 -20 -20 -15
0 -20 -7 -20 -25 0 -20 -5 -25 -25 -25 -18 0 -25 -5 -25 -20 0 -13 -7 -20 -20
-20 -13 0 -20 -7 -20 -20 0 -13 -7 -20 -20 -20 -17 0 -20 -7 -20 -40 0 -33 -3
-40 -20 -40 -13 0 -20 -7 -20 -20 0 -13 -7 -20 -20 -20 -17 0 -20 -7 -20 -40
0 -33 -3 -40 -20 -40 -13 0 -20 -7 -20 -20 0 -13 -7 -20 -20 -20 -17 0 -20 -7
-20 -45 0 -38 -3 -45 -20 -45 -13 0 -20 -7 -20 -20 0 -13 7 -20 20 -20 13 0
20 7 20 20 0 13 7 20 20 20 15 0 20 7 20 25 0 18 5 25 20 25 17 0 20 7 20 40
0 33 3 40 20 40 13 0 20 7 20 20 0 13 7 20 20 20 13 0 20 7 20 20 0 13 7 20
20 20 13 0 20 7 20 20 0 13 7 20 20 20 17 0 20 7 20 40 0 36 3 40 25 40 18 0
25 5 25 20 0 13 7 20 20 20 13 0 20 7 20 20 0 13 7 20 20 20 15 0 20 7 20 25
0 18 5 25 20 25 13 0 20 7 20 20 0 13 7 20 20 20 13 0 20 7 20 20 0 13 7 20
20 20 17 0 20 7 20 40 0 33 3 40 20 40 13 0 20 7 20 20 0 13 7 20 20 20 13 0
20 7 20 20 0 13 7 20 20 20 13 0 20 7 20 20 0 13 7 20 20 20 13 0 20 7 20 20
0 15 7 20 25 20 18 0 25 5 25 20 0 13 7 20 20 20 13 0 20 7 20 20 0 13 7 20
20 20 15 0 20 7 20 25 0 18 5 25 20 25 13 0 20 7 20 20 0 13 7 20 20 20 13 0
20 7 20 20 0 13 7 20 20 20 13 0 20 7 20 20 0 13 7 20 20 20 13 0 20 7 20 20
0 13 7 20 20 20 13 0 20 7 20 20 0 13 7 20 20 20 13 0 20 7 20 20 0 13 7 20
20 20 13 0 20 7 20 20 0 17 7 20 45 20 38 0 45 -3 45 -20 0 -15 -7 -20 -25
-20 -18 0 -25 -5 -25 -20 0 -13 -7 -20 -20 -20 -17 0 -20 -7 -20 -40 0 -33 -3
-40 -20 -40 -13 0 -20 -7 -20 -20 0 -13 -7 -20 -20 -20 -17 0 -20 -7 -20 -40
0 -33 -3 -40 -20 -40 -15 0 -20 -7 -20 -25 0 -18 -5 -25 -20 -25 -13 0 -20 -7
-20 -20 0 -13 -7 -20 -20 -20 -13 0 -20 -7 -20 -20 0 -13 -7 -20 -20 -20 -13
0 -20 -7 -20 -20 0 -13 -7 -20 -20 -20 -13 0 -20 -7 -20 -20 0 -13 -7 -20 -20
-20 -13 0 -20 -7 -20 -20 0 -13 -7 -20 -20 -20 -13 0 -20 -7 -20 -20 0 -15 -7
-20 -25 -20 -18 0 -25 -5 -25 -20 0 -13 -7 -20 -20 -20 -13 0 -20 -7 -20 -20
0 -13 -7 -20 -20 -20 -13 0 -20 -7 -20 -20 0 -13 -7 -20 -20 -20 -13 0 -20 -7
-20 -20 0 -13 -7 -20 -20 -20 -15 0 -20 -7 -20 -25 0 -18 -5 -25 -20 -25 -13
0 -20 -7 -20 -20 0 -13 -7 -20 -20 -20 -17 0 -20 -7 -20 -40 0 -33 -3 -40 -20
-40 -13 0 -20 -7 -20 -20 0 -13 -7 -20 -20 -20 -13 0 -20 -7 -20 -20 0 -13 -7
-20 -20 -20 -13 0 -20 -7 -20 -20 0 -15 -7 -20 -25 -20 -22 0 -25 -4 -25 -40
0 -33 -3 -40 -20 -40 -13 0 -20 -7 -20 -20 0 -13 7 -20 20 -20 15 0 20 -7 20
-25 0 -18 -5 -25 -20 -25 -17 0 -20 -7 -20 -40 0 -33 -3 -40 -20 -40 -13 0
-20 -7 -20 -20 0 -13 -7 -20 -20 -20 -13 0 -20 -7 -20 -20 0 -13 -7 -20 -20
-20 -13 0 -20 -7 -20 -20 0 -13 -7 -20 -20 -20 -17 0 -20 -7 -20 -40 0 -33 -3
-40 -20 -40 -13 0 -20 -7 -20 -20 0 -13 -7 -20 -20 -20 -13 0 -20 -7 -20 -20
0 -13 -7 -20 -20 -20 -13 0 -20 -7 -20 -20 0 -13 -7 -20 -20 -20 -17 0 -20 -7
-20 -45 0 -41 -2 -45 -25 -45 -18 0 -25 -5 -25 -20 0 -13 -7 -20 -20 -20 -17
0 -20 -7 -20 -40 0 -33 -3 -40 -20 -40 -13 0 -20 -7 -20 -20 0 -13 -7 -20 -20
-20 -17 0 -20 -7 -20 -40 0 -33 3 -40 20 -40 17 0 20 7 20 40 0 33 3 40 20 40
13 0 20 7 20 20 0 13 7 20 20 20 13 0 20 7 20 20 0 15 7 20 25 20 23 0 25 4
25 40 0 33 3 40 20 40 13 0 20 7 20 20 0 13 7 20 20 20 15 0 20 7 20 25 0 18
5 25 20 25 17 0 20 -7 20 -45 0 -38 -3 -45 -20 -45 -17 0 -20 -7 -20 -40 0
-33 -3 -40 -20 -40 -13 0 -20 -7 -20 -20 0 -13 -7 -20 -20 -20 -17 0 -20 -7
-20 -40 0 -36 -2 -40 -25 -40 -18 0 -25 -5 -25 -20 0 -13 -7 -20 -20 -20 -17
0 -20 -7 -20 -40 0 -33 -3 -40 -20 -40 -17 0 -20 -7 -20 -45 0 -38 -3 -45 -20
-45 -13 0 -20 -7 -20 -20 0 -13 -7 -20 -20 -20 -17 0 -20 -7 -20 -40 0 -33 -3
-40 -20 -40 -17 0 -20 -7 -20 -40 0 -33 -3 -40 -20 -40 -13 0 -20 -7 -20 -20
0 -13 -7 -20 -20 -20 -17 0 -20 -7 -20 -40 0 -33 -3 -40 -20 -40 -17 0 -20 -7
-20 -45 0 -38 -3 -45 -20 -45 -17 0 -20 -7 -20 -40 0 -33 -3 -40 -20 -40 -17
0 -20 -7 -20 -40 0 -36 -2 -40 -25 -40 -22 0 -25 -4 -25 -40 0 -33 -3 -40 -20
-40 -18 0 -20 -7 -20 -85 0 -78 -2 -85 -20 -85 -18 0 -20 -7 -20 -60 0 -53 -2
-60 -20 -60 -19 0 -20 -7 -20 -165 0 -158 1 -165 20 -165 13 0 20 -7 20 -20 0
-13 7 -20 20 -20 13 0 20 -7 20 -20 0 -17 7 -20 45 -20 l45 0 0 40 c0 33 3 40
20 40 13 0 20 7 20 20 0 13 7 20 20 20 15 0 20 7 20 25 0 18 5 25 20 25 13 0
20 7 20 20 0 13 7 20 20 20 13 0 20 7 20 20 0 13 7 20 20 20 13 0 20 7 20 20
0 13 7 20 20 20 17 0 20 -7 20 -40 0 -33 -3 -40 -20 -40 -19 0 -20 -7 -20
-205 0 -198 -1 -205 -20 -205 -19 0 -20 -7 -20 -105 0 -98 -1 -105 -20 -105
-19 0 -20 -7 -20 -140 0 -133 -1 -140 -20 -140 -19 0 -20 -7 -20 -145 0 -138
1 -145 20 -145 19 0 20 7 20 145 0 138 1 145 20 145 19 0 20 7 20 120 0 113 1
120 20 120 13 0 20 -7 20 -20 0 -13 7 -20 20 -20 19 0 20 -7 20 -225 0 -218
-1 -225 -20 -225 -19 0 -20 -7 -20 -165 0 -158 -1 -165 -20 -165 -20 0 -20 -7
-20 -345 0 -338 0 -345 20 -345 20 0 20 7 20 285 0 278 0 285 20 285 18 0 20
7 20 60 0 53 2 60 20 60 20 0 20 -7 20 -305 0 -298 0 -305 -20 -305 -19 0 -20
-7 -20 -105 0 -98 -1 -105 -20 -105 -19 0 -20 -7 -20 -100 0 -93 1 -100 20
-100 18 0 20 7 20 80 0 73 2 80 20 80 18 0 20 7 20 85 0 78 2 85 20 85 19 0
20 -7 20 -185 0 -178 -1 -185 -20 -185 -18 0 -20 -7 -20 -65 0 -58 -2 -65 -20
-65 -17 0 -20 -7 -20 -40 0 -33 -3 -40 -20 -40 -13 0 -20 -7 -20 -20 0 -13 -7
-20 -20 -20 -17 0 -20 -7 -20 -40 0 -33 -3 -40 -20 -40 -13 0 -20 -7 -20 -20
0 -13 -7 -20 -20 -20 -13 0 -20 -7 -20 -20 0 -13 -7 -20 -20 -20 -13 0 -20 -7
-20 -20 0 -13 -7 -20 -20 -20 -13 0 -20 -7 -20 -20 0 -15 -7 -20 -25 -20 -20
0 -25 -5 -25 -25 0 -18 -5 -25 -20 -25 -13 0 -20 -7 -20 -20 0 -13 -7 -20 -20
-20 -13 0 -20 -7 -20 -20 0 -13 -7 -20 -20 -20 -13 0 -20 -7 -20 -20 0 -13 -7
-20 -20 -20 -13 0 -20 -7 -20 -20 0 -13 -7 -20 -20 -20 -13 0 -20 -7 -20 -20
0 -17 -7 -20 -40 -20 l-40 0 0 -40 c0 -33 -3 -40 -20 -40 -13 0 -20 -7 -20
-20 0 -13 -7 -20 -20 -20 -17 0 -20 -7 -20 -40 0 -36 -2 -40 -25 -40 -20 0
-25 -5 -25 -25 0 -18 -5 -25 -20 -25 -17 0 -20 -7 -20 -40 0 -33 -3 -40 -20
-40 -13 0 -20 -7 -20 -20 0 -13 -7 -20 -20 -20 -13 0 -20 -7 -20 -20 0 -13 -7
-20 -20 -20 -13 0 -20 -7 -20 -20 0 -13 -7 -20 -20 -20 -13 0 -20 -7 -20 -20
0 -13 -7 -20 -20 -20 -13 0 -20 -7 -20 -20 0 -13 -7 -20 -20 -20 -17 0 -20 -7
-20 -40 0 -33 -3 -40 -20 -40 -17 0 -20 -7 -20 -45 0 -38 -3 -45 -20 -45 -13
0 -20 -7 -20 -20 0 -13 -7 -20 -20 -20 -13 0 -20 -7 -20 -20 0 -15 -7 -20 -25
-20 -18 0 -25 -5 -25 -20 0 -13 -7 -20 -20 -20 -13 0 -20 -7 -20 -20 0 -13 7
-20 20 -20 13 0 20 -7 20 -20 0 -15 7 -20 25 -20 18 0 25 -5 25 -20 0 -19 7
-20 200 -20 193 0 200 1 200 20 0 18 7 20 65 20 58 0 65 2 65 20 0 18 7 20 60
20 53 0 60 2 60 20 0 18 7 20 60 20 53 0 60 2 60 20 0 17 7 20 45 20 38 0 45
3 45 20 0 17 7 20 40 20 33 0 40 3 40 20 0 18 7 20 60 20 53 0 60 2 60 20 0
13 7 20 20 20 15 0 20 7 20 25 0 23 4 25 40 25 33 0 40 3 40 20 0 13 7 20 20
20 13 0 20 7 20 20 0 13 7 20 20 20 13 0 20 7 20 20 0 17 7 20 45 20 38 0 45
3 45 20 0 13 7 20 20 20 13 0 20 7 20 20 0 13 7 20 20 20 17 0 20 -7 20 -40 0
-33 3 -40 20 -40 19 0 20 -7 20 -165 0 -158 1 -165 20 -165 18 0 20 -7 20 -80
0 -73 2 -80 20 -80 19 0 20 -7 20 -205 0 -198 -1 -205 -20 -205 -13 0 -20 -7
-20 -20 0 -13 -7 -20 -20 -20 -13 0 -20 -7 -20 -20 0 -17 -7 -20 -40 -20 -36
0 -40 -2 -40 -25 0 -18 -5 -25 -20 -25 -13 0 -20 -7 -20 -20 0 -18 -7 -20 -65
-20 -58 0 -65 -2 -65 -20 0 -19 -7 -20 -120 -20 -113 0 -120 1 -120 20 0 19
-7 20 -185 20 l-185 0 0 -80 c0 -73 2 -80 20 -80 17 0 20 -7 20 -40 0 -33 3
-40 20 -40 13 0 20 -7 20 -20 0 -13 7 -20 20 -20 13 0 20 -7 20 -20 0 -13 7
-20 20 -20 15 0 20 -7 20 -25 0 -18 5 -25 20 -25 17 0 20 -7 20 -40 l0 -40 45
0 c38 0 45 -3 45 -20 0 -18 7 -20 60 -20 53 0 60 -2 60 -20 0 -17 7 -20 40
-20 33 0 40 -3 40 -20 0 -18 7 -20 80 -20 73 0 80 -2 80 -20 0 -18 7 -20 85
-20 78 0 85 2 85 20 0 18 7 20 80 20 73 0 80 2 80 20 0 17 7 20 40 20 33 0 40
3 40 20 0 17 7 20 45 20 38 0 45 3 45 20 0 13 7 20 20 20 13 0 20 7 20 20 0
17 7 20 40 20 33 0 40 3 40 20 0 13 7 20 20 20 13 0 20 -7 20 -20 0 -13 7 -20
20 -20 13 0 20 -7 20 -20 0 -13 7 -20 20 -20 13 0 20 -7 20 -20 0 -13 7 -20
20 -20 17 0 20 -7 20 -40 0 -33 3 -40 20 -40 18 0 20 -7 20 -60 0 -57 1 -60
25 -60 23 0 25 -4 25 -40 0 -33 3 -40 20 -40 17 0 20 -7 20 -45 0 -38 3 -45
20 -45 17 0 20 -7 20 -40 0 -33 3 -40 20 -40 17 0 20 -7 20 -40 0 -33 3 -40
20 -40 17 0 20 -7 20 -40 0 -33 3 -40 20 -40 13 0 20 -7 20 -20 0 -13 7 -20
20 -20 13 0 20 -7 20 -20 0 -17 7 -20 40 -20 36 0 40 -2 40 -25 0 -18 5 -25
20 -25 13 0 20 -7 20 -20 0 -13 7 -20 20 -20 13 0 20 -7 20 -20 0 -15 7 -20
25 -20 23 0 25 -4 25 -40 0 -33 3 -40 20 -40 13 0 20 -7 20 -20 0 -13 7 -20
20 -20 13 0 20 -7 20 -20 0 -13 7 -20 20 -20 13 0 20 -7 20 -20 0 -13 7 -20
20 -20 13 0 20 -7 20 -20 0 -13 7 -20 20 -20 13 0 20 -7 20 -20 0 -13 7 -20
20 -20 13 0 20 -7 20 -20 0 -17 7 -20 40 -20 36 0 40 -2 40 -25 0 -18 5 -25
20 -25 13 0 20 -7 20 -20 0 -15 7 -20 25 -20 18 0 25 -5 25 -20 0 -13 7 -20
20 -20 17 0 20 -7 20 -40 0 -33 3 -40 20 -40 18 0 20 -7 20 -80 0 -73 2 -80
20 -80 18 0 20 -7 20 -65 0 -58 2 -65 20 -65 13 0 20 -7 20 -20 0 -13 7 -20
20 -20 18 0 20 -7 20 -80 0 -73 2 -80 20 -80 13 0 20 -7 20 -20 0 -13 7 -20
20 -20 19 0 20 -7 20 -105 0 -98 1 -105 20 -105 18 0 20 -7 20 -60 0 -53 2
-60 20 -60 18 0 20 -7 20 -60 0 -53 2 -60 20 -60 17 0 20 -7 20 -40 0 -36 3
-40 25 -40 24 0 25 -2 25 -65 0 -58 2 -65 20 -65 17 0 20 -7 20 -40 0 -33 3
-40 20 -40 17 0 20 -7 20 -40 0 -33 3 -40 20 -40 13 0 20 -7 20 -20 0 -13 7
-20 20 -20 17 0 20 -7 20 -40 0 -33 3 -40 20 -40 18 0 20 -7 20 -65 0 -58 2
-65 20 -65 17 0 20 -7 20 -40 0 -33 3 -40 20 -40 17 0 20 -7 20 -40 0 -33 3
-40 20 -40 17 0 20 -7 20 -40 0 -33 3 -40 20 -40 13 0 20 -7 20 -20 0 -15 7
-20 25 -20 23 0 25 -4 25 -45 0 -38 3 -45 20 -45 17 0 20 -7 20 -40 0 -33 3
-40 20 -40 13 0 20 -7 20 -20 0 -13 7 -20 20 -20 18 0 20 -7 20 -60 0 -53 2
-60 20 -60 17 0 20 -7 20 -40 0 -33 3 -40 20 -40 13 0 20 -7 20 -20 0 -13 7
-20 20 -20 17 0 20 -7 20 -45 0 -38 3 -45 20 -45 17 0 20 -7 20 -40 0 -33 3
-40 20 -40 13 0 20 -7 20 -20 0 -13 7 -20 20 -20 17 0 20 -7 20 -40 0 -36 3
-40 25 -40 18 0 25 -5 25 -20 0 -13 7 -20 20 -20 13 0 20 -7 20 -20 0 -17 7
-20 40 -20 l40 0 0 -40 c0 -33 3 -40 20 -40 17 0 20 -7 20 -45 0 -38 3 -45 20
-45 17 0 20 -7 20 -40 0 -33 3 -40 20 -40 13 0 20 -7 20 -20 0 -13 7 -20 20
-20 13 0 20 -7 20 -20 0 -13 7 -20 20 -20 17 0 20 -7 20 -40 0 -33 3 -40 20
-40 13 0 20 -7 20 -20 0 -13 7 -20 20 -20 17 0 20 -7 20 -45 0 -41 2 -45 25
-45 23 0 25 -4 25 -40 l0 -40 40 0 c33 0 40 -3 40 -20 0 -13 7 -20 20 -20 17
0 20 -7 20 -40 l0 -40 40 0 40 0 0 -40 c0 -33 3 -40 20 -40 13 0 20 -7 20 -20
0 -13 7 -20 20 -20 13 0 20 -7 20 -20 0 -13 7 -20 20 -20 15 0 20 -7 20 -25 0
-18 5 -25 20 -25 13 0 20 -7 20 -20 0 -15 7 -20 25 -20 18 0 25 -5 25 -20 0
-17 7 -20 40 -20 33 0 40 -3 40 -20 0 -13 7 -20 20 -20 13 0 20 -7 20 -20 0
-17 7 -20 40 -20 33 0 40 -3 40 -20 0 -13 7 -20 20 -20 13 0 20 -7 20 -20 0
-17 7 -20 40 -20 33 0 40 -3 40 -20 0 -13 7 -20 20 -20 13 0 20 -7 20 -20 0
-13 7 -20 20 -20 13 0 20 -7 20 -20 0 -17 7 -20 45 -20 38 0 45 -3 45 -20 0
-13 7 -20 20 -20 15 0 20 -7 20 -25 0 -22 4 -25 40 -25 33 0 40 -3 40 -20 0
-13 7 -20 20 -20 13 0 20 -7 20 -20 0 -17 7 -20 40 -20 33 0 40 -3 40 -20 0
-13 7 -20 20 -20 13 0 20 -7 20 -20 0 -13 7 -20 20 -20 13 0 20 -7 20 -20 0
-17 7 -20 45 -20 38 0 45 -3 45 -20 0 -13 7 -20 20 -20 13 0 20 -7 20 -20 0
-13 7 -20 20 -20 13 0 20 -7 20 -20 0 -17 7 -20 40 -20 33 0 40 -3 40 -20 0
-13 7 -20 20 -20 15 0 20 -7 20 -25 0 -18 5 -25 20 -25 13 0 20 -7 20 -20 0
-17 7 -20 40 -20 33 0 40 -3 40 -20 0 -13 7 -20 20 -20 13 0 20 -7 20 -20 0
-17 7 -20 45 -20 38 0 45 -3 45 -20 0 -13 7 -20 20 -20 13 0 20 -7 20 -20 0
-18 7 -20 60 -20 53 0 60 -2 60 -20 0 -13 7 -20 20 -20 13 0 20 -7 20 -20 0
-18 7 -20 60 -20 53 0 60 -2 60 -20 0 -17 7 -20 45 -20 38 0 45 -3 45 -20 0
-17 7 -20 40 -20 33 0 40 -3 40 -20 0 -13 7 -20 20 -20 15 0 20 -7 20 -25 0
-24 3 -25 60 -25 53 0 60 -2 60 -20 0 -18 7 -20 85 -20 l85 0 0 -40 0 -40 60
0 c53 0 60 -2 60 -20 0 -18 7 -20 60 -20 53 0 60 -2 60 -20 0 -18 7 -20 60
-20 53 0 60 -2 60 -20 0 -17 7 -20 45 -20 38 0 45 -3 45 -20 0 -18 7 -20 60
-20 53 0 60 -2 60 -20 0 -18 7 -20 80 -20 73 0 80 -2 80 -20 0 -18 7 -20 65
-20 63 0 65 -1 65 -25 l0 -25 120 0 c113 0 120 -1 120 -20 0 -18 7 -20 60 -20
53 0 60 -2 60 -20 0 -19 7 -20 145 -20 138 0 145 -1 145 -20 0 -17 7 -20 40
-20 33 0 40 3 40 20 0 13 7 20 20 20 13 0 20 -7 20 -20 0 -19 7 -20 125 -20
118 0 125 -1 125 -20 0 -13 7 -20 20 -20 13 0 20 7 20 20 0 13 7 20 20 20 13
0 20 -7 20 -20 0 -19 7 -20 105 -20 98 0 105 1 105 20 0 13 7 20 20 20 13 0
20 -7 20 -20 0 -20 7 -20 410 -20 403 0 410 0 410 20 0 17 7 20 40 20 33 0 40
-3 40 -20 0 -17 7 -20 40 -20 33 0 40 3 40 20 0 19 7 20 205 20 198 0 205 1
205 20 0 18 7 20 60 20 53 0 60 2 60 20 0 18 7 20 85 20 78 0 85 2 85 20 0 13
7 20 20 20 13 0 20 -7 20 -20 0 -17 7 -20 40 -20 33 0 40 3 40 20 0 13 7 20
20 20 15 0 20 7 20 25 0 23 4 25 40 25 33 0 40 3 40 20 0 17 7 20 40 20 33 0
40 3 40 20 0 17 7 20 45 20 38 0 45 3 45 20 0 17 7 20 40 20 33 0 40 3 40 20
0 17 7 20 40 20 33 0 40 3 40 20 0 13 7 20 20 20 13 0 20 7 20 20 0 13 7 20
20 20 13 0 20 7 20 20 0 13 7 20 20 20 13 0 20 7 20 20 0 18 7 20 65 20 58 0
65 2 65 20 0 13 7 20 20 20 17 0 20 7 20 45 l0 45 80 0 c73 0 80 2 80 20 0 13
7 20 20 20 13 0 20 7 20 20 0 17 7 20 40 20 33 0 40 3 40 20 0 15 7 20 25 20
18 0 25 5 25 20 0 13 7 20 20 20 13 0 20 7 20 20 0 17 7 20 40 20 33 0 40 3
40 20 0 17 7 20 40 20 33 0 40 3 40 20 0 13 7 20 20 20 13 0 20 7 20 20 0 17
7 20 40 20 33 0 40 3 40 20 0 13 7 20 20 20 15 0 20 7 20 25 0 23 4 25 45 25
38 0 45 3 45 20 0 17 7 20 40 20 33 0 40 3 40 20 0 17 7 20 40 20 33 0 40 3
40 20 0 13 7 20 20 20 13 0 20 -7 20 -20 0 -17 7 -20 40 -20 33 0 40 3 40 20
0 13 -7 20 -20 20 -13 0 -20 7 -20 20 0 13 -7 20 -20 20 -17 0 -20 7 -20 40 0
33 3 40 20 40 13 0 20 7 20 20 0 17 7 20 40 20 33 0 40 3 40 20 0 13 7 20 20
20 17 0 20 7 20 45 0 41 2 45 25 45 18 0 25 5 25 20 0 17 7 20 40 20 33 0 40
3 40 20 0 17 7 20 40 20 33 0 40 3 40 20 0 13 7 20 20 20 13 0 20 7 20 20 0
13 7 20 20 20 13 0 20 7 20 20 0 13 7 20 20 20 13 0 20 7 20 20 0 18 7 20 60
20 l60 0 0 40 0 40 65 0 c58 0 65 2 65 20 0 13 7 20 20 20 13 0 20 7 20 20 0
17 7 20 40 20 l40 0 0 45 c0 38 3 45 20 45 13 0 20 7 20 20 0 13 7 20 20 20
13 0 20 -7 20 -20 0 -13 7 -20 20 -20 13 0 20 7 20 20 0 13 7 20 20 20 13 0
20 7 20 20 0 15 7 20 25 20 18 0 25 5 25 20 0 17 7 20 40 20 l40 0 0 40 c0 33
3 40 20 40 17 0 20 7 20 40 0 33 3 40 20 40 13 0 20 7 20 20 0 13 7 20 20 20
17 0 20 7 20 45 0 38 3 45 20 45 13 0 20 7 20 20 0 13 7 20 20 20 13 0 20 -7
20 -20 0 -13 7 -20 20 -20 13 0 20 7 20 20 0 13 7 20 20 20 13 0 20 7 20 20 0
15 7 20 25 20 18 0 25 -5 25 -20 0 -13 7 -20 20 -20 13 0 20 7 20 20 0 13 7
20 20 20 13 0 20 7 20 20 0 13 -7 20 -20 20 -13 0 -20 7 -20 20 0 19 7 20 100
20 l100 0 0 60 0 60 40 0 40 0 0 45 0 45 40 0 40 0 0 40 c0 36 3 40 25 40 18
0 25 5 25 20 0 15 -7 20 -25 20 -18 0 -25 5 -25 20 0 17 7 20 45 20 38 0 45 3
45 20 0 13 7 20 20 20 13 0 20 7 20 20 0 13 7 20 20 20 13 0 20 7 20 20 0 13
7 20 20 20 17 0 20 7 20 40 0 33 3 40 20 40 13 0 20 7 20 20 0 13 7 20 20 20
15 0 20 7 20 25 0 18 5 25 20 25 13 0 20 7 20 20 0 13 7 20 20 20 13 0 20 7
20 20 0 13 7 20 20 20 18 0 20 7 20 60 0 57 1 60 25 60 23 0 25 4 25 40 0 33
3 40 20 40 13 0 20 7 20 20 0 13 7 20 20 20 17 0 20 7 20 45 l0 45 40 0 40 0
0 40 c0 33 3 40 20 40 13 0 20 7 20 20 0 13 7 20 20 20 13 0 20 7 20 20 0 13
7 20 20 20 13 0 20 7 20 20 0 13 7 20 20 20 18 0 20 7 20 60 0 53 2 60 20 60
13 0 20 7 20 20 0 13 7 20 20 20 13 0 20 7 20 20 0 15 7 20 25 20 23 0 25 4
25 45 0 38 3 45 20 45 13 0 20 7 20 20 0 13 7 20 20 20 18 0 20 7 20 60 0 53
2 60 20 60 13 0 20 7 20 20 0 13 7 20 20 20 17 0 20 7 20 40 0 33 3 40 20 40
17 0 20 7 20 45 0 38 -3 45 -20 45 -13 0 -20 7 -20 20 0 17 7 20 40 20 l40 0
0 60 c0 53 2 60 20 60 17 0 20 7 20 40 0 33 3 40 20 40 13 0 20 7 20 20 0 13
-7 20 -20 20 -17 0 -20 7 -20 40 0 33 3 40 20 40 17 0 20 7 20 45 0 38 3 45
20 45 17 0 20 7 20 40 0 36 3 40 25 40 25 0 25 1 25 80 0 73 2 80 20 80 17 0
20 7 20 40 0 33 3 40 20 40 17 0 20 7 20 45 0 38 3 45 20 45 17 0 20 7 20 40
0 33 3 40 20 40 18 0 20 7 20 60 l0 60 40 0 40 0 0 40 c0 33 3 40 20 40 13 0
20 7 20 20 0 13 7 20 20 20 13 0 20 7 20 20 0 13 -7 20 -20 20 -17 0 -20 7
-20 45 0 38 3 45 20 45 13 0 20 7 20 20 0 13 7 20 20 20 13 0 20 7 20 20 0 13
-7 20 -20 20 -13 0 -20 7 -20 20 0 13 7 20 20 20 13 0 20 7 20 20 0 13 -7 20
-20 20 -18 0 -20 7 -20 60 0 53 2 60 20 60 20 0 20 7 20 270 0 263 0 270 20
270 17 0 20 7 20 40 0 36 3 40 25 40 l25 0 0 100 0 100 -25 0 c-18 0 -25 5
-25 20 0 15 7 20 25 20 l25 0 0 125 c0 118 1 125 20 125 18 0 20 7 20 80 0 73
2 80 20 80 13 0 20 7 20 20 0 13 7 20 20 20 17 0 20 7 20 45 0 38 -3 45 -20
45 -17 0 -20 7 -20 40 0 33 3 40 20 40 13 0 20 7 20 20 0 13 7 20 20 20 18 0
20 7 20 60 0 53 -2 60 -20 60 -13 0 -20 7 -20 20 0 13 7 20 20 20 13 0 20 7
20 20 0 13 -7 20 -20 20 -17 0 -20 7 -20 45 0 38 3 45 20 45 18 0 20 7 20 60
0 53 -2 60 -20 60 -13 0 -20 7 -20 20 0 13 7 20 20 20 13 0 20 7 20 20 0 13 7
20 20 20 17 0 20 7 20 40 0 33 3 40 20 40 18 0 20 7 20 85 0 78 2 85 20 85 13
0 20 7 20 20 0 13 7 20 20 20 17 0 20 7 20 40 0 33 3 40 20 40 13 0 20 7 20
20 0 17 -7 20 -40 20 -33 0 -40 3 -40 20 0 17 7 20 40 20 l40 0 0 40 0 40 45
0 c38 0 45 3 45 20 0 13 7 20 20 20 17 0 20 7 20 45 0 38 3 45 20 45 18 0 20
7 20 60 0 53 2 60 20 60 18 0 20 7 20 60 0 53 2 60 20 60 17 0 20 7 20 40 l0
40 -40 0 c-33 0 -40 3 -40 20 0 13 7 20 20 20 13 0 20 7 20 20 0 13 -7 20 -20
20 -15 0 -20 7 -20 25 0 23 4 25 40 25 36 0 40 -2 40 -25 0 -18 5 -25 20 -25
15 0 20 7 20 25 0 18 -5 25 -20 25 -13 0 -20 7 -20 20 0 13 -7 20 -20 20 -18
0 -20 7 -20 60 0 53 2 60 20 60 13 0 20 7 20 20 0 13 7 20 20 20 19 0 20 7 20
145 0 138 1 145 20 145 18 0 20 -7 20 -85 0 -78 2 -85 20 -85 13 0 20 -7 20
-20 0 -13 -7 -20 -20 -20 -17 0 -20 -7 -20 -40 0 -33 3 -40 20 -40 17 0 20 -7
20 -40 0 -33 3 -40 20 -40 13 0 20 -7 20 -20 0 -15 7 -20 25 -20 18 0 25 -5
25 -20 0 -17 7 -20 40 -20 l40 0 0 40 c0 33 3 40 20 40 18 0 20 7 20 60 0 53
2 60 20 60 18 0 20 7 20 85 0 78 2 85 20 85 18 0 20 7 20 60 0 53 2 60 20 60
13 0 20 -7 20 -20 0 -17 7 -20 40 -20 l40 0 0 140 c0 133 -1 140 -20 140 -19
0 -20 7 -20 165 0 158 1 165 20 165 19 0 20 7 20 125 0 118 -1 125 -20 125
-13 0 -20 7 -20 20 0 13 7 20 20 20 17 0 20 7 20 40 0 33 -3 40 -20 40 -19 0
-20 7 -20 145 0 138 -1 145 -20 145 -18 0 -20 7 -20 80 0 73 -2 80 -20 80 -18
0 -20 7 -20 60 0 53 -2 60 -20 60 -17 0 -20 7 -20 45 0 38 3 45 20 45 19 0 20
7 20 120 0 113 1 120 20 120 17 0 20 7 20 40 0 33 3 40 20 40 13 0 20 7 20 20
0 13 -7 20 -20 20 -17 0 -20 7 -20 45 0 38 -3 45 -20 45 -18 0 -20 7 -20 60 0
53 -2 60 -20 60 -17 0 -20 7 -20 40 0 33 -3 40 -20 40 -17 0 -20 7 -20 40 0
33 -3 40 -20 40 -18 0 -20 7 -20 65 0 58 -2 65 -20 65 -17 0 -20 7 -20 40 0
33 -3 40 -20 40 -19 0 -20 7 -20 100 0 93 1 100 20 100 18 0 20 7 20 65 0 58
-2 65 -20 65 -18 0 -20 7 -20 60 0 57 -1 60 -25 60 -24 0 -25 3 -25 60 0 57 1
60 25 60 23 0 25 -4 25 -40 0 -33 3 -40 20 -40 18 0 20 -7 20 -60 0 -53 2 -60
20 -60 17 0 20 -7 20 -45 0 -38 3 -45 20 -45 18 0 20 7 20 65 0 58 -2 65 -20
65 -18 0 -20 7 -20 60 0 53 -2 60 -20 60 -18 0 -20 7 -20 60 0 53 -2 60 -20
60 -18 0 -20 7 -20 65 0 63 -1 65 -25 65 -24 0 -25 3 -25 60 0 53 -2 60 -20
60 -17 0 -20 7 -20 40 0 33 -3 40 -20 40 -17 0 -20 7 -20 40 0 33 -3 40 -20
40 -17 0 -20 7 -20 40 0 33 -3 40 -20 40 -18 0 -20 7 -20 85 0 78 -2 85 -20
85 -18 0 -20 7 -20 60 0 53 2 60 20 60 13 0 20 -7 20 -20 0 -13 7 -20 20 -20
13 0 20 -7 20 -20 0 -13 7 -20 20 -20 13 0 20 -7 20 -20 0 -13 7 -20 20 -20
13 0 20 -7 20 -20 0 -13 7 -20 20 -20 17 0 20 -7 20 -40 0 -36 3 -40 25 -40
20 0 25 -5 25 -25 0 -18 5 -25 20 -25 13 0 20 -7 20 -20 0 -13 7 -20 20 -20
17 0 20 -7 20 -40 0 -33 3 -40 20 -40 13 0 20 -7 20 -20 0 -13 7 -20 20 -20
13 0 20 -7 20 -20 0 -17 7 -20 40 -20 33 0 40 -3 40 -20 0 -13 7 -20 20 -20
13 0 20 -7 20 -20 0 -17 7 -20 40 -20 l40 0 0 40 c0 33 -3 40 -20 40 -18 0
-20 7 -20 80 0 73 -2 80 -20 80 -18 0 -20 7 -20 65 0 58 -2 65 -20 65 -17 0
-20 7 -20 40 0 33 -3 40 -20 40 -17 0 -20 7 -20 40 0 33 -3 40 -20 40 -17 0
-20 7 -20 40 0 33 -3 40 -20 40 -17 0 -20 7 -20 40 0 33 -3 40 -20 40 -15 0
-20 7 -20 25 0 18 -5 25 -20 25 -17 0 -20 7 -20 40 0 33 -3 40 -20 40 -13 0
-20 7 -20 20 0 15 -7 20 -25 20 -22 0 -25 4 -25 40 0 33 -3 40 -20 40 -18 0
-20 7 -20 60 0 53 2 60 20 60 13 0 20 -7 20 -20 0 -15 7 -20 25 -20 18 0 25
-5 25 -20 0 -13 7 -20 20 -20 13 0 20 -7 20 -20 0 -13 7 -20 20 -20 13 0 20 7
20 20 0 13 7 20 20 20 18 0 20 7 20 60 0 53 -2 60 -20 60 -13 0 -20 7 -20 20
0 13 -7 20 -20 20 -17 0 -20 7 -20 45 0 38 -3 45 -20 45 -13 0 -20 7 -20 20 0
15 -7 20 -25 20 -18 0 -25 5 -25 20 0 13 -7 20 -20 20 -13 0 -20 7 -20 20 0
13 -7 20 -20 20 -13 0 -20 7 -20 20 0 13 -7 20 -20 20 -13 0 -20 7 -20 20 0
13 -7 20 -20 20 -13 0 -20 7 -20 20 0 13 -7 20 -20 20 -13 0 -20 7 -20 20 0
13 -7 20 -20 20 -13 0 -20 7 -20 20 0 13 -7 20 -20 20 -15 0 -20 7 -20 25 0
18 -5 25 -20 25 -13 0 -20 7 -20 20 0 13 -7 20 -20 20 -13 0 -20 7 -20 20 0
15 -7 20 -25 20 -18 0 -25 5 -25 20 0 13 -7 20 -20 20 -13 0 -20 7 -20 20 0
17 -7 20 -40 20 -33 0 -40 3 -40 20 0 13 -7 20 -20 20 -13 0 -20 7 -20 20 0
13 -7 20 -20 20 -13 0 -20 7 -20 20 0 13 -7 20 -20 20 -13 0 -20 7 -20 20 0
17 -7 20 -40 20 -33 0 -40 3 -40 20 0 13 -7 20 -20 20 -13 0 -20 7 -20 20 0
15 -7 20 -25 20 -20 0 -25 5 -25 25 0 18 -5 25 -20 25 -17 0 -20 7 -20 40 0
33 -3 40 -20 40 -13 0 -20 7 -20 20 0 13 -7 20 -20 20 -13 0 -20 7 -20 20 0
13 -7 20 -20 20 -13 0 -20 7 -20 20 0 13 -7 20 -20 20 -13 0 -20 7 -20 20 0
13 -7 20 -20 20 -13 0 -20 7 -20 20 0 13 -7 20 -20 20 -13 0 -20 7 -20 20 0
13 -7 20 -20 20 -13 0 -20 7 -20 20 0 17 -7 20 -40 20 l-40 0 0 45 c0 41 -2
45 -25 45 -18 0 -25 5 -25 20 0 13 -7 20 -20 20 -13 0 -20 7 -20 20 0 13 -7
20 -20 20 -13 0 -20 7 -20 20 0 17 7 20 40 20 33 0 40 -3 40 -20 0 -15 7 -20
25 -20 18 0 25 -5 25 -20 0 -13 7 -20 20 -20 13 0 20 -7 20 -20 0 -17 7 -20
40 -20 33 0 40 -3 40 -20 0 -13 7 -20 20 -20 15 0 20 -7 20 -25 0 -22 4 -25
40 -25 33 0 40 -3 40 -20 0 -13 7 -20 20 -20 13 0 20 -7 20 -20 0 -13 7 -20
20 -20 13 0 20 -7 20 -20 0 -17 7 -20 40 -20 33 0 40 -3 40 -20 0 -15 7 -20
25 -20 18 0 25 -5 25 -20 0 -17 7 -20 40 -20 33 0 40 -3 40 -20 0 -13 7 -20
20 -20 13 0 20 -7 20 -20 0 -17 7 -20 40 -20 l40 0 0 -40 c0 -33 3 -40 20 -40
15 0 20 -7 20 -25 0 -22 4 -25 40 -25 33 0 40 -3 40 -20 0 -17 7 -20 45 -20
38 0 45 -3 45 -20 0 -13 7 -20 20 -20 13 0 20 -7 20 -20 0 -13 7 -20 20 -20
13 0 20 -7 20 -20 0 -13 7 -20 20 -20 17 0 20 -7 20 -40 0 -33 3 -40 20 -40
13 0 20 -7 20 -20 0 -13 7 -20 20 -20 13 0 20 -7 20 -20 0 -17 7 -20 40 -20
33 0 40 3 40 20 0 13 7 20 20 20 18 0 20 7 20 60 0 53 -2 60 -20 60 -18 0 -20
7 -20 60 0 53 2 60 20 60 18 0 20 7 20 65 0 58 -2 65 -20 65 -18 0 -20 7 -20
60 0 53 -2 60 -20 60 -18 0 -20 7 -20 60 0 53 -2 60 -20 60 -17 0 -20 7 -20
40 0 33 -3 40 -20 40 -17 0 -20 7 -20 45 0 38 -3 45 -20 45 -17 0 -20 7 -20
40 0 33 -3 40 -20 40 -13 0 -20 7 -20 20 0 13 -7 20 -20 20 -13 0 -20 7 -20
20 0 13 -7 20 -20 20 -13 0 -20 7 -20 20 0 15 -7 20 -25 20 -18 0 -25 5 -25
20 0 13 -7 20 -20 20 -13 0 -20 7 -20 20 0 13 -7 20 -20 20 -13 0 -20 7 -20
20 0 13 -7 20 -20 20 -15 0 -20 7 -20 25 0 18 -5 25 -20 25 -13 0 -20 7 -20
20 0 13 -7 20 -20 20 -13 0 -20 7 -20 20 0 17 -7 20 -40 20 -33 0 -40 3 -40
20 0 13 -7 20 -20 20 -13 0 -20 7 -20 20 0 13 -7 20 -20 20 -13 0 -20 7 -20
20 0 15 -7 20 -25 20 -18 0 -25 5 -25 20 0 13 -7 20 -20 20 -13 0 -20 7 -20
20 0 13 -7 20 -20 20 -13 0 -20 7 -20 20 0 18 -7 20 -60 20 -53 0 -60 2 -60
20 0 13 -7 20 -20 20 -13 0 -20 7 -20 20 0 17 -7 20 -40 20 -36 0 -40 3 -40
25 0 23 -4 25 -40 25 -33 0 -40 3 -40 20 0 18 -7 20 -65 20 -58 0 -65 2 -65
20 0 17 -7 20 -40 20 -33 0 -40 3 -40 20 0 18 -7 20 -60 20 -53 0 -60 2 -60
20 0 17 -7 20 -40 20 -33 0 -40 3 -40 20 0 17 -7 20 -45 20 -38 0 -45 3 -45
20 0 17 -7 20 -40 20 -33 0 -40 3 -40 20 0 13 -7 20 -20 20 -13 0 -20 7 -20
20 0 13 -7 20 -20 20 -13 0 -20 7 -20 20 0 13 -7 20 -20 20 -15 0 -20 7 -20
25 0 23 -4 25 -40 25 -33 0 -40 3 -40 20 0 13 -7 20 -20 20 -13 0 -20 7 -20
20 0 17 -7 20 -45 20 -38 0 -45 3 -45 20 0 13 -7 20 -20 20 -17 0 -20 7 -20
40 0 33 -3 40 -20 40 -13 0 -20 7 -20 20 0 17 -7 20 -40 20 -33 0 -40 3 -40
20 0 13 -7 20 -20 20 -13 0 -20 7 -20 20 0 13 -7 20 -20 20 -13 0 -20 7 -20
20 0 13 -7 20 -20 20 -13 0 -20 7 -20 20 0 13 -7 20 -20 20 -15 0 -20 7 -20
25 0 18 -5 25 -20 25 -13 0 -20 7 -20 20 0 17 -7 20 -45 20 -38 0 -45 3 -45
20 0 13 -7 20 -20 20 -13 0 -20 7 -20 20 0 13 -7 20 -20 20 -13 0 -20 7 -20
20 0 17 -7 20 -40 20 -33 0 -40 3 -40 20 0 13 -7 20 -20 20 -13 0 -20 7 -20
20 0 13 -7 20 -20 20 -13 0 -20 7 -20 20 0 13 -7 20 -20 20 -13 0 -20 7 -20
20 0 18 7 20 60 20 53 0 60 -2 60 -20 0 -17 7 -20 40 -20 33 0 40 -3 40 -20 0
-17 7 -20 40 -20 33 0 40 -3 40 -20 0 -13 7 -20 20 -20 13 0 20 -7 20 -20 0
-15 7 -20 25 -20 18 0 25 -5 25 -20 0 -13 7 -20 20 -20 13 0 20 -7 20 -20 0
-17 7 -20 40 -20 33 0 40 -3 40 -20 0 -13 7 -20 20 -20 13 0 20 -7 20 -20 0
-13 7 -20 20 -20 15 0 20 -7 20 -25 0 -18 5 -25 20 -25 17 0 20 -7 20 -40 0
-33 3 -40 20 -40 13 0 20 -7 20 -20 0 -18 7 -20 85 -20 l85 0 0 105 c0 98 -1
105 -20 105 -13 0 -20 7 -20 20 0 15 -7 20 -25 20 -22 0 -25 4 -25 40 0 33 -3
40 -20 40 -13 0 -20 7 -20 20 0 17 -7 20 -40 20 -33 0 -40 3 -40 20 0 13 -7
20 -20 20 -13 0 -20 7 -20 20 0 13 -7 20 -20 20 -13 0 -20 7 -20 20 0 13 -7
20 -20 20 -13 0 -20 7 -20 20 0 17 -7 20 -40 20 -36 0 -40 3 -40 25 0 18 -5
25 -20 25 -13 0 -20 7 -20 20 0 17 -7 20 -45 20 -38 0 -45 3 -45 20 0 17 -7
20 -40 20 -33 0 -40 3 -40 20 0 17 -7 20 -40 20 -33 0 -40 3 -40 20 0 13 -7
20 -20 20 -13 0 -20 7 -20 20 0 17 -7 20 -40 20 -33 0 -40 3 -40 20 0 13 -7
20 -20 20 -13 0 -20 7 -20 20 0 17 -7 20 -45 20 -38 0 -45 3 -45 20 0 18 -7
20 -60 20 -53 0 -60 2 -60 20 0 18 -7 20 -60 20 -57 0 -60 1 -60 25 l0 25 145
0 c138 0 145 1 145 20 0 15 -7 20 -25 20 -18 0 -25 5 -25 20 0 13 -7 20 -20
20 -13 0 -20 7 -20 20 0 18 -7 20 -60 20 -53 0 -60 2 -60 20 0 18 -7 20 -60
20 -53 0 -60 2 -60 20 0 18 -7 20 -85 20 -78 0 -85 2 -85 20 0 18 -7 20 -80
20 -73 0 -80 2 -80 20 0 19 -7 20 -105 20 -98 0 -105 -1 -105 -20 0 -17 -7
-20 -40 -20 -33 0 -40 3 -40 20 0 19 -7 20 -205 20 -198 0 -205 1 -205 20 0
19 -7 20 -100 20 -93 0 -100 1 -100 20 0 19 -7 20 -105 20 -98 0 -105 1 -105
20 0 19 -7 20 -100 20 l-100 0 0 25 0 25 -145 0 c-138 0 -145 1 -145 20 0 18
-7 20 -80 20 -73 0 -80 2 -80 20 0 13 -7 20 -20 20 -13 0 -20 -7 -20 -20 0
-13 -7 -20 -20 -20 -13 0 -20 7 -20 20 0 19 -7 20 -205 20 -198 0 -205 1 -205
20 0 20 -7 20 -370 20 l-370 0 0 40 0 40 145 0 c138 0 145 1 145 20 0 17 7 20
40 20 33 0 40 3 40 20 0 17 7 20 40 20 33 0 40 -3 40 -20 0 -13 7 -20 20 -20
13 0 20 7 20 20 0 20 7 20 285 20 278 0 285 0 285 20 0 17 7 20 45 20 38 0 45
3 45 20 0 13 7 20 20 20 18 0 20 7 20 65 0 58 -2 65 -20 65 -17 0 -20 7 -20
40 l0 40 -45 0 c-38 0 -45 3 -45 20 0 17 -7 20 -40 20 -33 0 -40 3 -40 20 0
13 -7 20 -20 20 -13 0 -20 7 -20 20 0 19 -7 20 -100 20 -93 0 -100 1 -100 20
0 19 -7 20 -125 20 -118 0 -125 1 -125 20 0 17 -7 20 -40 20 -33 0 -40 3 -40
20 0 19 -7 20 -125 20 l-125 0 0 25 0 25 -120 0 c-113 0 -120 1 -120 20 0 19
7 20 100 20 93 0 100 1 100 20 0 20 -7 20 -410 20 -403 0 -410 0 -410 20 0 20
-7 20 -305 20 -298 0 -305 0 -305 20 0 19 -7 20 -185 20 -178 0 -185 -1 -185
-20 0 -17 -7 -20 -40 -20 -33 0 -40 3 -40 20 0 19 -7 20 -185 20 -178 0 -185
1 -185 20 0 20 7 20 350 20 343 0 350 0 350 20 0 20 7 20 610 20 603 0 610 0
610 20 0 20 -7 20 -630 20 -623 0 -630 0 -630 20 0 19 7 20 100 20 93 0 100 1
100 20 0 19 -7 20 -185 20 -178 0 -185 -1 -185 -20z m120 -80 c0 -19 -7 -20
-100 -20 -93 0 -100 1 -100 20 0 19 7 20 100 20 93 0 100 -1 100 -20z m-2580
-370 c0 -17 -7 -20 -40 -20 -33 0 -40 -3 -40 -20 0 -17 -7 -20 -40 -20 -33 0
-40 3 -40 20 0 17 7 20 40 20 33 0 40 3 40 20 0 17 7 20 40 20 33 0 40 -3 40
-20z m-490 -200 c0 -13 -7 -20 -20 -20 -13 0 -20 7 -20 20 0 13 7 20 20 20 13
0 20 -7 20 -20z m-280 -80 c0 -15 -7 -20 -25 -20 -18 0 -25 5 -25 20 0 15 7
20 25 20 18 0 25 -5 25 -20z m120 0 c0 -13 -7 -20 -20 -20 -13 0 -20 7 -20 20
0 13 7 20 20 20 13 0 20 -7 20 -20z m-210 -40 c0 -13 -7 -20 -20 -20 -15 0
-20 -7 -20 -25 0 -18 -5 -25 -20 -25 -13 0 -20 -7 -20 -20 0 -17 -7 -20 -40
-20 -33 0 -40 -3 -40 -20 0 -17 -7 -20 -40 -20 -33 0 -40 -3 -40 -20 0 -17 -7
-20 -40 -20 -33 0 -40 -3 -40 -20 0 -17 -7 -20 -45 -20 -38 0 -45 -3 -45 -20
0 -13 -7 -20 -20 -20 -13 0 -20 -7 -20 -20 0 -17 -7 -20 -40 -20 -33 0 -40 -3
-40 -20 0 -17 -7 -20 -40 -20 -33 0 -40 -3 -40 -20 0 -17 -7 -20 -40 -20 -33
0 -40 -3 -40 -20 0 -13 -7 -20 -20 -20 -15 0 -20 -7 -20 -25 0 -23 -4 -25 -45
-25 -38 0 -45 -3 -45 -20 0 -17 -7 -20 -40 -20 -33 0 -40 -3 -40 -20 0 -13 -7
-20 -20 -20 -13 0 -20 7 -20 20 0 13 7 20 20 20 13 0 20 7 20 20 0 17 7 20 40
20 36 0 40 3 40 25 0 23 4 25 45 25 38 0 45 3 45 20 0 13 7 20 20 20 13 0 20
7 20 20 0 13 7 20 20 20 13 0 20 7 20 20 0 17 7 20 40 20 33 0 40 3 40 20 0
17 7 20 40 20 33 0 40 3 40 20 0 17 7 20 40 20 33 0 40 3 40 20 0 13 7 20 20
20 13 0 20 7 20 20 0 17 7 20 45 20 38 0 45 3 45 20 0 17 7 20 40 20 33 0 40
3 40 20 0 17 7 20 40 20 36 0 40 3 40 25 0 23 4 25 40 25 33 0 40 3 40 20 0
13 7 20 20 20 13 0 20 -7 20 -20z m8610 -1315 c0 -22 4 -25 40 -25 33 0 40 -3
40 -20 0 -17 -7 -20 -40 -20 -33 0 -40 3 -40 20 0 17 -7 20 -45 20 -41 0 -45
2 -45 25 0 23 4 25 45 25 41 0 45 -2 45 -25z m-11510 -1205 c0 -36 -2 -40 -25
-40 -22 0 -25 4 -25 40 0 36 3 40 25 40 23 0 25 -4 25 -40z m-370 -1010 c0
-13 -7 -20 -20 -20 -13 0 -20 7 -20 20 0 13 7 20 20 20 13 0 20 -7 20 -20z
m-580 -775 c0 -18 -5 -25 -20 -25 -13 0 -20 -7 -20 -20 0 -13 -7 -20 -20 -20
-13 0 -20 -7 -20 -20 0 -13 -7 -20 -20 -20 -13 0 -20 -7 -20 -20 0 -13 -7 -20
-20 -20 -13 0 -20 -7 -20 -20 0 -13 -7 -20 -20 -20 -13 0 -20 7 -20 20 0 13 7
20 20 20 13 0 20 7 20 20 0 13 7 20 20 20 13 0 20 7 20 20 0 13 7 20 20 20 13
0 20 7 20 20 0 13 7 20 20 20 15 0 20 7 20 25 0 18 5 25 20 25 15 0 20 -7 20
-25z m-200 -245 c0 -13 -7 -20 -20 -20 -13 0 -20 -7 -20 -20 0 -13 -7 -20 -20
-20 -13 0 -20 -7 -20 -20 0 -13 -7 -20 -20 -20 -13 0 -20 -7 -20 -20 0 -15 -7
-20 -25 -20 -18 0 -25 5 -25 20 0 15 7 20 25 20 18 0 25 5 25 20 0 13 7 20 20
20 13 0 20 7 20 20 0 13 7 20 20 20 13 0 20 7 20 20 0 13 7 20 20 20 13 0 20
-7 20 -20z m-40 -165 c0 -18 -5 -25 -20 -25 -17 0 -20 -7 -20 -40 0 -33 -3
-40 -20 -40 -13 0 -20 -7 -20 -20 0 -15 -7 -20 -25 -20 -18 0 -25 -5 -25 -20
0 -13 -7 -20 -20 -20 -17 0 -20 7 -20 40 0 33 3 40 20 40 13 0 20 7 20 20 0
15 7 20 25 20 18 0 25 5 25 20 0 13 7 20 20 20 15 0 20 7 20 25 0 18 5 25 20
25 15 0 20 -7 20 -25z m15560 -45 c0 -13 7 -20 20 -20 13 0 20 -7 20 -20 0
-13 -7 -20 -20 -20 -13 0 -20 7 -20 20 0 13 -7 20 -20 20 -13 0 -20 7 -20 20
0 13 7 20 20 20 13 0 20 -7 20 -20z m-15890 -360 c0 -13 -7 -20 -20 -20 -13 0
-20 7 -20 20 0 13 7 20 20 20 13 0 20 -7 20 -20z m15770 -170 c0 -13 -7 -20
-20 -20 -13 0 -20 7 -20 20 0 13 7 20 20 20 13 0 20 -7 20 -20z m200 -840 c0
-33 -3 -40 -20 -40 -17 0 -20 7 -20 40 0 33 3 40 20 40 17 0 20 -7 20 -40z
m50 -370 c0 -36 -2 -40 -25 -40 -22 0 -25 4 -25 40 0 36 3 40 25 40 23 0 25
-4 25 -40z m-2750 -510 c0 -19 7 -20 125 -20 118 0 125 -1 125 -20 0 -18 7
-20 60 -20 53 0 60 -2 60 -20 0 -18 7 -20 60 -20 53 0 60 -2 60 -20 0 -13 7
-20 20 -20 17 0 20 -7 20 -40 0 -33 3 -40 20 -40 13 0 20 7 20 20 0 17 7 20
45 20 38 0 45 -3 45 -20 0 -17 7 -20 40 -20 33 0 40 -3 40 -20 0 -13 7 -20 20
-20 15 0 20 -7 20 -25 0 -18 5 -25 20 -25 13 0 20 -7 20 -20 0 -13 7 -20 20
-20 13 0 20 -7 20 -20 0 -13 7 -20 20 -20 13 0 20 -7 20 -20 0 -13 7 -20 20
-20 13 0 20 -7 20 -20 0 -13 7 -20 20 -20 17 0 20 -7 20 -40 0 -33 3 -40 20
-40 13 0 20 -7 20 -20 0 -15 7 -20 25 -20 18 0 25 -5 25 -20 0 -13 7 -20 20
-20 13 0 20 -7 20 -20 0 -13 7 -20 20 -20 17 0 20 -7 20 -45 0 -38 3 -45 20
-45 17 0 20 -7 20 -40 0 -33 3 -40 20 -40 13 0 20 -7 20 -20 0 -13 7 -20 20
-20 17 0 20 -7 20 -40 0 -33 3 -40 20 -40 20 0 20 -7 20 -350 l0 -350 40 0
c33 0 40 3 40 20 0 13 7 20 20 20 13 0 20 7 20 20 0 13 -7 20 -20 20 -18 0
-20 7 -20 65 0 58 2 65 20 65 13 0 20 -7 20 -20 0 -15 7 -20 25 -20 l25 0 0
-165 c0 -158 1 -165 20 -165 17 0 20 -7 20 -40 0 -33 3 -40 20 -40 19 0 20 -7
20 -165 0 -158 1 -165 20 -165 19 0 20 -7 20 -125 0 -118 1 -125 20 -125 19 0
20 -7 20 -140 0 -133 1 -140 20 -140 19 0 20 -7 20 -105 0 -98 1 -105 20 -105
19 0 20 -7 20 -185 l0 -185 -40 0 -40 0 0 -60 c0 -53 2 -60 20 -60 17 0 20 -7
20 -40 0 -33 3 -40 20 -40 17 0 20 -7 20 -40 0 -33 3 -40 20 -40 17 0 20 -7
20 -45 0 -38 -3 -45 -20 -45 -13 0 -20 -7 -20 -20 0 -13 7 -20 20 -20 17 0 20
-7 20 -40 0 -33 -3 -40 -20 -40 -20 0 -20 -7 -20 -305 0 -298 0 -305 -20 -305
-13 0 -20 -7 -20 -20 0 -13 7 -20 20 -20 17 0 20 -7 20 -45 0 -38 -3 -45 -20
-45 -19 0 -20 -7 -20 -140 0 -133 -1 -140 -20 -140 -19 0 -20 -7 -20 -105 0
-98 -1 -105 -20 -105 -19 0 -20 -7 -20 -100 0 -93 -1 -100 -20 -100 -19 0 -20
-7 -20 -105 0 -98 -1 -105 -20 -105 -18 0 -20 -7 -20 -80 0 -73 -2 -80 -20
-80 -17 0 -20 -7 -20 -40 0 -33 3 -40 20 -40 18 0 20 -7 20 -65 0 -58 -2 -65
-20 -65 -17 0 -20 -7 -20 -40 0 -36 -2 -40 -25 -40 -24 0 -25 -3 -25 -60 0
-53 -2 -60 -20 -60 -13 0 -20 -7 -20 -20 0 -13 7 -20 20 -20 13 0 20 -7 20
-20 0 -13 -7 -20 -20 -20 -17 0 -20 -7 -20 -40 0 -33 -3 -40 -20 -40 -18 0
-20 -7 -20 -85 0 -78 -2 -85 -20 -85 -18 0 -20 -7 -20 -80 0 -73 -2 -80 -20
-80 -18 0 -20 -7 -20 -60 0 -53 -2 -60 -20 -60 -15 0 -20 -7 -20 -25 0 -18 -5
-25 -20 -25 -13 0 -20 -7 -20 -20 0 -13 7 -20 20 -20 13 0 20 -7 20 -20 0 -13
-7 -20 -20 -20 -13 0 -20 -7 -20 -20 0 -13 -7 -20 -20 -20 -18 0 -20 -7 -20
-80 0 -73 -2 -80 -20 -80 -13 0 -20 -7 -20 -20 0 -13 -7 -20 -20 -20 -17 0
-20 -7 -20 -45 0 -41 -2 -45 -25 -45 -24 0 -25 -3 -25 -60 0 -53 -2 -60 -20
-60 -17 0 -20 -7 -20 -40 0 -33 -3 -40 -20 -40 -13 0 -20 -7 -20 -20 0 -13 -7
-20 -20 -20 -17 0 -20 -7 -20 -40 0 -33 -3 -40 -20 -40 -18 0 -20 -7 -20 -65
0 -58 -2 -65 -20 -65 -13 0 -20 -7 -20 -20 0 -13 -7 -20 -20 -20 -17 0 -20 -7
-20 -40 l0 -40 -40 0 c-33 0 -40 -3 -40 -20 0 -13 -7 -20 -20 -20 -17 0 -20
-7 -20 -40 0 -33 -3 -40 -20 -40 -17 0 -20 -7 -20 -40 0 -36 -2 -40 -25 -40
-23 0 -25 -4 -25 -45 0 -38 -3 -45 -20 -45 -13 0 -20 -7 -20 -20 0 -17 -7 -20
-40 -20 l-40 0 0 -60 c0 -53 -2 -60 -20 -60 -17 0 -20 -7 -20 -40 0 -33 -3
-40 -20 -40 -13 0 -20 -7 -20 -20 0 -13 -7 -20 -20 -20 -17 0 -20 -7 -20 -40
0 -33 -3 -40 -20 -40 -17 0 -20 -7 -20 -45 0 -38 -3 -45 -20 -45 -13 0 -20 -7
-20 -20 0 -17 -7 -20 -45 -20 -38 0 -45 -3 -45 -20 0 -13 -7 -20 -20 -20 -17
0 -20 -7 -20 -40 0 -33 -3 -40 -20 -40 -13 0 -20 -7 -20 -20 0 -13 -7 -20 -20
-20 -13 0 -20 -7 -20 -20 0 -13 -7 -20 -20 -20 -13 0 -20 -7 -20 -20 0 -13 -7
-20 -20 -20 -13 0 -20 -7 -20 -20 0 -13 -7 -20 -20 -20 -13 0 -20 -7 -20 -20
0 -13 -7 -20 -20 -20 -17 0 -20 -7 -20 -45 l0 -45 -40 0 c-33 0 -40 -3 -40
-20 0 -13 -7 -20 -20 -20 -13 0 -20 -7 -20 -20 0 -15 -7 -20 -25 -20 -18 0
-25 -5 -25 -20 0 -17 -7 -20 -40 -20 l-40 0 0 -40 c0 -33 -3 -40 -20 -40 -13
0 -20 -7 -20 -20 0 -13 -7 -20 -20 -20 -13 0 -20 -7 -20 -20 0 -13 -7 -20 -20
-20 -13 0 -20 -7 -20 -20 0 -17 -7 -20 -40 -20 l-40 0 0 -45 0 -45 -40 0 -40
0 0 -40 c0 -36 -2 -40 -25 -40 -18 0 -25 -5 -25 -20 0 -17 -7 -20 -40 -20 -33
0 -40 -3 -40 -20 0 -13 -7 -20 -20 -20 -13 0 -20 -7 -20 -20 0 -13 -7 -20 -20
-20 -13 0 -20 -7 -20 -20 0 -13 -7 -20 -20 -20 -13 0 -20 -7 -20 -20 0 -13 -7
-20 -20 -20 -17 0 -20 -7 -20 -40 l0 -40 -40 0 -40 0 0 -45 c0 -38 -3 -45 -20
-45 -13 0 -20 -7 -20 -20 0 -15 -7 -20 -25 -20 -18 0 -25 -5 -25 -20 0 -17 -7
-20 -40 -20 l-40 0 0 -40 c0 -33 -3 -40 -20 -40 -13 0 -20 -7 -20 -20 0 -17
-7 -20 -40 -20 -33 0 -40 -3 -40 -20 0 -17 -7 -20 -40 -20 -33 0 -40 -3 -40
-20 0 -13 -7 -20 -20 -20 -13 0 -20 -7 -20 -20 0 -13 -7 -20 -20 -20 -15 0
-20 -7 -20 -25 0 -23 -4 -25 -45 -25 -38 0 -45 -3 -45 -20 0 -13 -7 -20 -20
-20 -13 0 -20 -7 -20 -20 0 -17 -7 -20 -40 -20 -33 0 -40 -3 -40 -20 0 -17 -7
-20 -40 -20 -33 0 -40 -3 -40 -20 0 -13 -7 -20 -20 -20 -13 0 -20 -7 -20 -20
0 -13 -7 -20 -20 -20 -13 0 -20 -7 -20 -20 0 -13 -7 -20 -20 -20 -13 0 -20 -7
-20 -20 0 -13 -7 -20 -20 -20 -13 0 -20 -7 -20 -20 0 -17 -7 -20 -45 -20 -38
0 -45 -3 -45 -20 0 -13 -7 -20 -20 -20 -17 0 -20 -7 -20 -45 l0 -45 -40 0
c-33 0 -40 -3 -40 -20 0 -13 -7 -20 -20 -20 -13 0 -20 -7 -20 -20 0 -13 -7
-20 -20 -20 -13 0 -20 -7 -20 -20 0 -13 -7 -20 -20 -20 -13 0 -20 -7 -20 -20
0 -13 -7 -20 -20 -20 -13 0 -20 -7 -20 -20 0 -13 -7 -20 -20 -20 -13 0 -20 -7
-20 -20 0 -13 -7 -20 -20 -20 -13 0 -20 -7 -20 -20 0 -15 -7 -20 -25 -20 -18
0 -25 -5 -25 -20 0 -17 -7 -20 -40 -20 -33 0 -40 -3 -40 -20 0 -13 -7 -20 -20
-20 -15 0 -20 -7 -20 -25 0 -22 -4 -25 -40 -25 -33 0 -40 -3 -40 -20 0 -17 -7
-20 -40 -20 -33 0 -40 -3 -40 -20 0 -17 -7 -20 -40 -20 -33 0 -40 -3 -40 -20
0 -17 -7 -20 -45 -20 -38 0 -45 -3 -45 -20 0 -19 -7 -20 -120 -20 l-120 0 0
-40 0 -40 -65 0 c-58 0 -65 -2 -65 -20 0 -18 -7 -20 -80 -20 -73 0 -80 -2 -80
-20 0 -13 -7 -20 -20 -20 -13 0 -20 7 -20 20 0 17 -7 20 -40 20 -33 0 -40 -3
-40 -20 0 -18 -7 -20 -60 -20 -53 0 -60 -2 -60 -20 0 -15 -7 -20 -25 -20 -18
0 -25 5 -25 20 0 17 -7 20 -40 20 -33 0 -40 -3 -40 -20 0 -13 7 -20 20 -20 13
0 20 -7 20 -20 0 -13 -7 -20 -20 -20 -13 0 -20 7 -20 20 0 18 -7 20 -60 20
-53 0 -60 -2 -60 -20 0 -17 -7 -20 -40 -20 -36 0 -40 -2 -40 -25 0 -18 -5 -25
-20 -25 -13 0 -20 -7 -20 -20 0 -13 -7 -20 -20 -20 -17 0 -20 -7 -20 -40 l0
-40 -65 0 c-58 0 -65 -2 -65 -20 0 -17 -7 -20 -40 -20 -33 0 -40 -3 -40 -20 0
-13 -7 -20 -20 -20 -13 0 -20 7 -20 20 0 13 -7 20 -20 20 -13 0 -20 -7 -20
-20 0 -13 -7 -20 -20 -20 -13 0 -20 7 -20 20 0 13 -7 20 -20 20 -13 0 -20 -7
-20 -20 0 -17 -7 -20 -40 -20 -33 0 -40 -3 -40 -20 0 -18 -7 -20 -85 -20 -78
0 -85 -2 -85 -20 0 -17 -7 -20 -40 -20 -33 0 -40 -3 -40 -20 0 -13 -7 -20 -20
-20 -13 0 -20 7 -20 20 0 19 -7 20 -185 20 -178 0 -185 -1 -185 -20 0 -18 -7
-20 -80 -20 -73 0 -80 -2 -80 -20 0 -13 -7 -20 -20 -20 -13 0 -20 7 -20 20 0
19 -7 20 -250 20 -243 0 -250 1 -250 20 0 19 -7 20 -100 20 -93 0 -100 1 -100
20 0 19 -7 20 -125 20 -118 0 -125 1 -125 20 0 19 -7 20 -100 20 -93 0 -100 1
-100 20 0 17 -7 20 -40 20 -33 0 -40 3 -40 20 0 19 -7 20 -105 20 -98 0 -105
1 -105 20 0 17 -7 20 -40 20 -33 0 -40 3 -40 20 0 18 -7 20 -80 20 -73 0 -80
2 -80 20 0 18 -7 20 -65 20 -63 0 -65 1 -65 25 0 23 -4 25 -40 25 -33 0 -40 3
-40 20 0 17 -7 20 -40 20 l-40 0 0 60 c0 53 -2 60 -20 60 -17 0 -20 7 -20 40
l0 40 -60 0 c-53 0 -60 2 -60 20 0 15 -7 20 -25 20 -18 0 -25 5 -25 20 0 18
-7 20 -60 20 -53 0 -60 2 -60 20 0 18 -7 20 -60 20 -53 0 -60 2 -60 20 0 17
-7 20 -40 20 -36 0 -40 3 -40 25 l0 25 -105 0 c-98 0 -105 1 -105 20 0 17 -7
20 -40 20 -33 0 -40 3 -40 20 0 13 -7 20 -20 20 -17 0 -20 7 -20 40 l0 40 -40
0 c-33 0 -40 3 -40 20 0 17 -7 20 -45 20 -38 0 -45 3 -45 20 0 17 -7 20 -40
20 -33 0 -40 3 -40 20 0 13 -7 20 -20 20 -13 0 -20 7 -20 20 0 17 -7 20 -40
20 -33 0 -40 3 -40 20 0 13 -7 20 -20 20 -15 0 -20 7 -20 25 0 18 -5 25 -20
25 -13 0 -20 7 -20 20 0 19 -7 20 -105 20 -98 0 -105 1 -105 20 0 13 -7 20
-20 20 -13 0 -20 7 -20 20 0 18 -7 20 -60 20 -53 0 -60 2 -60 20 0 13 -7 20
-20 20 -13 0 -20 7 -20 20 0 17 -7 20 -40 20 -33 0 -40 3 -40 20 0 13 -7 20
-20 20 -13 0 -20 7 -20 20 0 15 -7 20 -25 20 -18 0 -25 5 -25 20 0 13 -7 20
-20 20 -13 0 -20 7 -20 20 0 17 -7 20 -40 20 -33 0 -40 3 -40 20 0 13 -7 20
-20 20 -15 0 -20 7 -20 25 0 23 -4 25 -40 25 l-40 0 0 40 c0 33 -3 40 -20 40
-13 0 -20 7 -20 20 0 13 -7 20 -20 20 -13 0 -20 7 -20 20 0 13 -7 20 -20 20
-13 0 -20 7 -20 20 0 13 -7 20 -20 20 -13 0 -20 7 -20 20 0 15 -7 20 -25 20
-18 0 -25 5 -25 20 0 13 -7 20 -20 20 -13 0 -20 7 -20 20 0 13 -7 20 -20 20
-13 0 -20 7 -20 20 0 13 -7 20 -20 20 -17 0 -20 7 -20 45 l0 45 -40 0 c-33 0
-40 3 -40 20 0 13 -7 20 -20 20 -17 0 -20 7 -20 40 l0 40 -40 0 -40 0 0 60 c0
53 -2 60 -20 60 -13 0 -20 7 -20 20 0 15 -7 20 -25 20 -18 0 -25 5 -25 20 0
13 -7 20 -20 20 -17 0 -20 7 -20 45 0 38 -3 45 -20 45 -18 0 -20 7 -20 60 0
53 -2 60 -20 60 -13 0 -20 7 -20 20 0 17 -7 20 -40 20 l-40 0 0 60 0 60 -40 0
-40 0 0 40 c0 33 -3 40 -20 40 -15 0 -20 7 -20 25 0 18 -5 25 -20 25 -18 0
-20 7 -20 60 0 53 -2 60 -20 60 -17 0 -20 7 -20 40 0 36 -2 40 -25 40 -18 0
-25 5 -25 20 0 13 -7 20 -20 20 -13 0 -20 7 -20 20 0 13 -7 20 -20 20 -17 0
-20 7 -20 40 0 33 -3 40 -20 40 -15 0 -20 7 -20 25 0 18 -5 25 -20 25 -13 0
-20 7 -20 20 0 13 -7 20 -20 20 -17 0 -20 7 -20 40 0 33 -3 40 -20 40 -18 0
-20 7 -20 60 0 53 -2 60 -20 60 -17 0 -20 7 -20 40 0 33 -3 40 -20 40 -17 0
-20 7 -20 40 0 33 -3 40 -20 40 -15 0 -20 7 -20 25 0 20 -5 25 -25 25 -25 0
-25 1 -25 80 0 73 -2 80 -20 80 -17 0 -20 7 -20 40 0 33 -3 40 -20 40 -17 0
-20 7 -20 40 0 33 -3 40 -20 40 -17 0 -20 7 -20 45 0 38 -3 45 -20 45 -18 0
-20 7 -20 80 0 73 -2 80 -20 80 -19 0 -20 7 -20 100 0 93 -1 100 -20 100 -18
0 -20 7 -20 65 0 58 -2 65 -20 65 -17 0 -20 7 -20 40 0 33 -3 40 -20 40 -18 0
-20 7 -20 60 0 53 -2 60 -20 60 -13 0 -20 7 -20 20 0 13 7 20 20 20 13 0 20 7
20 20 0 13 -7 20 -20 20 -18 0 -20 7 -20 65 0 63 -1 65 -25 65 -22 0 -25 4
-25 40 0 33 -3 40 -20 40 -18 0 -20 7 -20 80 0 73 -2 80 -20 80 -18 0 -20 7
-20 85 0 78 -2 85 -20 85 -18 0 -20 7 -20 80 0 73 -2 80 -20 80 -13 0 -20 7
-20 20 0 13 7 20 20 20 13 0 20 7 20 20 0 13 -7 20 -20 20 -13 0 -20 7 -20 20
0 13 -7 20 -20 20 -13 0 -20 7 -20 20 0 13 7 20 20 20 13 0 20 7 20 20 0 13
-7 20 -20 20 -18 0 -20 7 -20 85 0 78 -2 85 -20 85 -17 0 -20 7 -20 40 0 33 3
40 20 40 13 0 20 7 20 20 0 13 -7 20 -20 20 -19 0 -20 7 -20 125 0 118 1 125
20 125 19 0 20 7 20 120 0 113 1 120 20 120 19 0 20 7 20 145 0 138 -1 145
-20 145 -18 0 -20 7 -20 60 0 53 -2 60 -20 60 -19 0 -20 7 -20 145 0 138 -1
145 -20 145 -18 0 -20 7 -20 60 0 53 -2 60 -20 60 -19 0 -20 7 -20 125 0 118
-1 125 -20 125 -18 0 -20 7 -20 80 0 73 -2 80 -20 80 -20 0 -20 7 -20 430 l0
430 -25 0 -25 0 0 370 0 370 45 0 45 0 0 40 c0 33 -3 40 -20 40 -19 0 -20 7
-20 145 0 138 1 145 20 145 18 0 20 7 20 80 0 73 2 80 20 80 18 0 20 7 20 60
0 53 2 60 20 60 18 0 20 7 20 65 0 58 2 65 20 65 17 0 20 7 20 40 0 33 3 40
20 40 17 0 20 7 20 40 0 33 3 40 20 40 18 0 20 7 20 60 0 53 2 60 20 60 17 0
20 7 20 45 0 38 3 45 20 45 13 0 20 7 20 20 0 13 7 20 20 20 17 0 20 7 20 40
0 33 3 40 20 40 17 0 20 7 20 40 0 36 3 40 25 40 18 0 25 5 25 20 0 13 7 20
20 20 13 0 20 -7 20 -20 0 -13 7 -20 20 -20 13 0 20 -7 20 -20 0 -13 7 -20 20
-20 13 0 20 -7 20 -20 0 -13 7 -20 20 -20 13 0 20 -7 20 -20 0 -13 7 -20 20
-20 17 0 20 -7 20 -40 0 -33 3 -40 20 -40 18 0 20 -7 20 -65 0 -58 2 -65 20
-65 17 0 20 -7 20 -40 0 -33 3 -40 20 -40 17 0 20 -7 20 -40 0 -33 3 -40 20
-40 13 0 20 -7 20 -20 0 -15 7 -20 25 -20 23 0 25 -4 25 -40 0 -33 3 -40 20
-40 17 0 20 -7 20 -45 0 -38 3 -45 20 -45 13 0 20 -7 20 -20 0 -13 7 -20 20
-20 17 0 20 -7 20 -40 0 -33 3 -40 20 -40 13 0 20 -7 20 -20 0 -13 7 -20 20
-20 17 0 20 -7 20 -40 0 -33 3 -40 20 -40 13 0 20 -7 20 -20 0 -17 7 -20 40
-20 33 0 40 -3 40 -20 0 -13 7 -20 20 -20 13 0 20 -7 20 -20 0 -15 7 -20 25
-20 20 0 25 -5 25 -25 0 -22 4 -25 40 -25 33 0 40 -3 40 -20 0 -17 7 -20 40
-20 33 0 40 -3 40 -20 0 -18 7 -20 60 -20 53 0 60 -2 60 -20 0 -17 7 -20 40
-20 33 0 40 -3 40 -20 0 -18 7 -20 65 -20 58 0 65 -2 65 -20 0 -18 7 -20 60
-20 53 0 60 2 60 20 0 17 7 20 40 20 l40 0 0 40 c0 33 3 40 20 40 17 0 20 7
20 40 0 33 3 40 20 40 18 0 20 7 20 85 0 78 -2 85 -20 85 -17 0 -20 7 -20 40
0 33 3 40 20 40 18 0 20 7 20 60 0 53 -2 60 -20 60 -19 0 -20 7 -20 105 0 98
1 105 20 105 17 0 20 7 20 40 0 33 -3 40 -20 40 -13 0 -20 7 -20 20 0 13 7 20
20 20 18 0 20 7 20 60 0 53 2 60 20 60 13 0 20 -7 20 -20 0 -15 7 -20 25 -20
18 0 25 5 25 20 0 13 7 20 20 20 15 0 20 7 20 25 0 18 5 25 20 25 17 0 20 7
20 40 0 33 3 40 20 40 17 0 20 7 20 40 0 33 3 40 20 40 17 0 20 7 20 40 0 33
-3 40 -20 40 -13 0 -20 -7 -20 -20 0 -13 -7 -20 -20 -20 -13 0 -20 -7 -20 -20
0 -13 -7 -20 -20 -20 -13 0 -20 -7 -20 -20 0 -13 -7 -20 -20 -20 -17 0 -20 7
-20 40 0 33 3 40 20 40 17 0 20 7 20 40 0 33 3 40 20 40 17 0 20 7 20 40 0 33
3 40 20 40 13 0 20 7 20 20 0 13 7 20 20 20 15 0 20 7 20 25 0 18 5 25 20 25
13 0 20 7 20 20 0 17 7 20 40 20 33 0 40 3 40 20 0 17 7 20 40 20 33 0 40 3
40 20 0 17 7 20 45 20 38 0 45 3 45 20 0 18 7 20 60 20 53 0 60 2 60 20 0 19
7 20 205 20 198 0 205 -1 205 -20 0 -13 7 -20 20 -20 13 0 20 -7 20 -20 0 -18
7 -20 60 -20 53 0 60 -2 60 -20 0 -13 7 -20 20 -20 18 0 20 -7 20 -65 0 -58 2
-65 20 -65 13 0 20 -7 20 -20 0 -17 7 -20 45 -20 38 0 45 -3 45 -20 0 -17 7
-20 40 -20 33 0 40 -3 40 -20 0 -13 7 -20 20 -20 17 0 20 -7 20 -40 0 -33 3
-40 20 -40 13 0 20 -7 20 -20 0 -18 7 -20 60 -20 53 0 60 -2 60 -20 0 -13 7
-20 20 -20 17 0 20 -7 20 -40 l0 -40 45 0 c38 0 45 -3 45 -20 0 -13 7 -20 20
-20 15 0 20 -7 20 -25 0 -22 4 -25 40 -25 33 0 40 -3 40 -20 0 -17 7 -20 40
-20 33 0 40 -3 40 -20 0 -17 7 -20 40 -20 33 0 40 -3 40 -20 0 -17 7 -20 40
-20 33 0 40 -3 40 -20 0 -15 7 -20 25 -20 18 0 25 -5 25 -20 0 -17 7 -20 40
-20 33 0 40 -3 40 -20 0 -17 7 -20 40 -20 33 0 40 -3 40 -20 0 -17 7 -20 40
-20 33 0 40 -3 40 -20 0 -13 7 -20 20 -20 13 0 20 7 20 20 0 13 7 20 20 20 13
0 20 -7 20 -20 0 -17 7 -20 40 -20 33 0 40 -3 40 -20 0 -15 7 -20 25 -20 20 0
25 -5 25 -25 0 -18 5 -25 20 -25 13 0 20 -7 20 -20 0 -17 7 -20 40 -20 33 0
40 -3 40 -20 0 -13 7 -20 20 -20 13 0 20 -7 20 -20 0 -18 7 -20 80 -20 73 0
80 -2 80 -20 0 -13 7 -20 20 -20 13 0 20 -7 20 -20 0 -18 7 -20 85 -20 78 0
85 -2 85 -20 0 -18 7 -20 60 -20 53 0 60 -2 60 -20 0 -13 7 -20 20 -20 13 0
20 -7 20 -20 0 -18 7 -20 60 -20 53 0 60 -2 60 -20 0 -15 7 -20 25 -20 18 0
25 5 25 20 0 13 7 20 20 20 13 0 20 -7 20 -20 0 -18 7 -20 60 -20 57 0 60 -1
60 -25 0 -24 3 -25 60 -25 53 0 60 -2 60 -20 0 -18 7 -20 65 -20 58 0 65 -2
65 -20 0 -18 7 -20 60 -20 53 0 60 -2 60 -20 0 -18 7 -20 80 -20 73 0 80 -2
80 -20 0 -13 7 -20 20 -20 13 0 20 7 20 20 0 13 7 20 20 20 13 0 20 -7 20 -20
0 -19 7 -20 125 -20 118 0 125 -1 125 -20 0 -18 7 -20 60 -20 53 0 60 -2 60
-20 0 -19 7 -20 145 -20 138 0 145 -1 145 -20 0 -19 7 -20 225 -20 218 0 225
-1 225 -20 0 -18 7 -20 60 -20 53 0 60 2 60 20 0 18 7 20 65 20 58 0 65 -2 65
-20 0 -13 7 -20 20 -20 13 0 20 7 20 20 0 18 7 20 60 20 l60 0 0 -40 0 -40 40
0 c33 0 40 3 40 20 0 20 7 20 655 20 648 0 655 0 655 20 0 20 7 20 310 20 303
0 310 0 310 20 0 19 7 20 100 20 93 0 100 1 100 20 0 19 7 20 185 20 178 0
185 1 185 20 0 19 7 20 165 20 158 0 165 1 165 20 0 18 7 20 80 20 73 0 80 2
80 20 0 19 7 20 105 20 98 0 105 1 105 20 0 17 7 20 40 20 33 0 40 3 40 20 0
17 7 20 40 20 36 0 40 3 40 25 0 23 4 25 40 25 33 0 40 3 40 20 0 18 7 20 65
20 58 0 65 2 65 20 0 18 7 20 60 20 53 0 60 2 60 20 0 17 7 20 40 20 33 0 40
3 40 20 0 13 7 20 20 20 13 0 20 7 20 20 0 18 7 20 80 20 73 0 80 2 80 20 0
15 7 20 25 20 18 0 25 5 25 20 0 17 7 20 40 20 33 0 40 3 40 20 0 17 7 20 40
20 33 0 40 3 40 20 0 17 7 20 40 20 36 0 40 3 40 25 0 23 4 25 40 25 33 0 40
3 40 20 0 13 7 20 20 20 17 0 20 7 20 40 l0 40 45 0 c38 0 45 3 45 20 0 17 7
20 40 20 33 0 40 3 40 20 0 13 -7 20 -20 20 -13 0 -20 7 -20 20 0 13 -7 20
-20 20 -13 0 -20 7 -20 20 0 13 -7 20 -20 20 -13 0 -20 7 -20 20 0 19 -7 20
-165 20 -158 0 -165 1 -165 20 0 18 -7 20 -65 20 -63 0 -65 1 -65 25 0 25 -1
25 -80 25 -73 0 -80 2 -80 20 0 17 -7 20 -40 20 -33 0 -40 3 -40 20 0 17 -7
20 -40 20 -33 0 -40 3 -40 20 0 13 -7 20 -20 20 -13 0 -20 7 -20 20 0 18 -7
20 -65 20 -58 0 -65 2 -65 20 0 17 -7 20 -40 20 -33 0 -40 3 -40 20 0 17 -7
20 -40 20 -33 0 -40 3 -40 20 0 13 -7 20 -20 20 -13 0 -20 7 -20 20 0 18 -7
20 -60 20 -53 0 -60 2 -60 20 0 15 -7 20 -25 20 -18 0 -25 5 -25 20 0 18 -7
20 -60 20 -57 0 -60 1 -60 25 0 18 -5 25 -20 25 -17 0 -20 7 -20 40 l0 40 -40
0 c-33 0 -40 3 -40 20 0 17 -7 20 -40 20 l-40 0 0 -40 c0 -33 3 -40 20 -40 13
0 20 -7 20 -20 0 -13 -7 -20 -20 -20 -13 0 -20 7 -20 20 0 18 -7 20 -65 20
-58 0 -65 2 -65 20 0 17 -7 20 -40 20 l-40 0 0 -40 c0 -33 3 -40 20 -40 15 0
20 -7 20 -25 0 -22 4 -25 40 -25 l40 0 0 -40 0 -40 45 0 c38 0 45 -3 45 -20 0
-18 -7 -20 -65 -20 -58 0 -65 2 -65 20 0 18 -7 20 -60 20 -53 0 -60 2 -60 20
0 17 -7 20 -40 20 -33 0 -40 3 -40 20 0 13 7 20 20 20 17 0 20 7 20 45 0 38 3
45 20 45 13 0 20 7 20 20 0 13 7 20 20 20 13 0 20 7 20 20 0 13 7 20 20 20 13
0 20 7 20 20 0 13 7 20 20 20 13 0 20 7 20 20 0 17 7 20 45 20 l45 0 0 60 0
60 40 0 c33 0 40 3 40 20 0 13 7 20 20 20 15 0 20 7 20 25 0 18 5 25 20 25 13
0 20 7 20 20 0 13 7 20 20 20 13 0 20 7 20 20 0 13 7 20 20 20 13 0 20 7 20
20 0 17 7 20 40 20 33 0 40 3 40 20 0 17 7 20 45 20 38 0 45 3 45 20 0 18 7
20 60 20 53 0 60 2 60 20 0 18 7 20 80 20 73 0 80 2 80 20 0 19 7 20 185 20
178 0 185 -1 185 -20z m-13640 -370 c0 -13 -7 -20 -20 -20 -13 0 -20 7 -20 20
0 13 7 20 20 20 13 0 20 -7 20 -20z m4020 -730 c0 -15 -7 -20 -25 -20 -18 0
-25 5 -25 20 0 15 7 20 25 20 18 0 25 -5 25 -20z m12080 -1770 c0 -13 -7 -20
-20 -20 -13 0 -20 7 -20 20 0 13 7 20 20 20 13 0 20 -7 20 -20z m0 -80 c0 -13
7 -20 20 -20 13 0 20 -7 20 -20 0 -13 -7 -20 -20 -20 -13 0 -20 -7 -20 -20 0
-13 -7 -20 -20 -20 -18 0 -20 7 -20 60 0 53 2 60 20 60 13 0 20 -7 20 -20z
m-80 -240 c0 -53 -2 -60 -20 -60 -15 0 -20 -7 -20 -25 0 -20 -5 -25 -25 -25
-23 0 -25 4 -25 45 0 41 2 45 25 45 23 0 25 4 25 40 0 33 3 40 20 40 18 0 20
-7 20 -60z m-2220 -5860 c0 -13 -7 -20 -20 -20 -13 0 -20 7 -20 20 0 13 7 20
20 20 13 0 20 -7 20 -20z"/>
<path d="M16220 12215 c0 -18 5 -25 20 -25 15 0 20 7 20 25 0 18 -5 25 -20 25
-15 0 -20 -7 -20 -25z"/>
<path d="M15280 12050 c0 -17 7 -20 40 -20 l40 0 0 -40 c0 -33 3 -40 20 -40
17 0 20 7 20 40 0 33 -3 40 -20 40 -13 0 -20 7 -20 20 0 17 -7 20 -40 20 -33
0 -40 -3 -40 -20z"/>
<path d="M3730 17130 c0 -343 0 -350 -20 -350 -19 0 -20 -7 -20 -100 0 -93 1
-100 20 -100 19 0 20 7 20 100 0 93 1 100 20 100 20 0 20 7 20 350 0 343 0
350 -20 350 -20 0 -20 -7 -20 -350z"/>
<path d="M1850 11375 c0 -118 1 -125 20 -125 19 0 20 7 20 125 0 118 -1 125
-20 125 -19 0 -20 -7 -20 -125z"/>
<path d="M14180 1730 c0 -15 -7 -20 -25 -20 -18 0 -25 -5 -25 -20 0 -17 7 -20
45 -20 l45 0 0 40 c0 33 -3 40 -20 40 -13 0 -20 -7 -20 -20z"/>
<path d="M14260 1690 c0 -13 7 -20 20 -20 13 0 20 7 20 20 0 13 -7 20 -20 20
-13 0 -20 -7 -20 -20z"/>
</g>
</svg>
