<?xml version="1.0" standalone="no"?>
<!DOCTYPE svg PUBLIC "-//W3C//DTD SVG 20010904//EN"
 "http://www.w3.org/TR/2001/REC-SVG-20010904/DTD/svg10.dtd">
<svg version="1.0" xmlns="http://www.w3.org/2000/svg"
 width="2048.000000pt" height="2048.000000pt" viewBox="0 0 2048.000000 2048.000000"
 preserveAspectRatio="xMidYMid meet">

<g transform="translate(0.000000,2048.000000) scale(0.100000,-0.100000)"
fill="#000000" stroke="none">
<path d="M10330 20280 c0 -18 7 -20 60 -20 53 0 60 2 60 20 0 18 -7 20 -60 20
-53 0 -60 -2 -60 -20z"/>
<path d="M10000 20240 c0 -19 -7 -20 -145 -20 -138 0 -145 -1 -145 -20 0 -19
-7 -20 -125 -20 -118 0 -125 -1 -125 -20 0 -19 -7 -20 -120 -20 -113 0 -120
-1 -120 -20 0 -19 -7 -20 -145 -20 -138 0 -145 -1 -145 -20 0 -19 -7 -20 -100
-20 -93 0 -100 -1 -100 -20 0 -19 -7 -20 -125 -20 -118 0 -125 -1 -125 -20 0
-18 -7 -20 -80 -20 -73 0 -80 -2 -80 -20 0 -19 -7 -20 -105 -20 l-105 0 0 -25
c0 -24 -3 -25 -60 -25 -53 0 -60 -2 -60 -20 0 -18 -7 -20 -80 -20 -73 0 -80
-2 -80 -20 0 -18 -7 -20 -85 -20 -78 0 -85 -2 -85 -20 0 -18 -7 -20 -60 -20
-53 0 -60 -2 -60 -20 0 -18 -7 -20 -60 -20 -53 0 -60 2 -60 20 0 17 7 20 40
20 33 0 40 3 40 20 0 17 7 20 40 20 33 0 40 3 40 20 0 17 -7 20 -40 20 -33 0
-40 -3 -40 -20 0 -17 -7 -20 -40 -20 -33 0 -40 -3 -40 -20 0 -19 -7 -20 -105
-20 -98 0 -105 -1 -105 -20 0 -17 -7 -20 -40 -20 -33 0 -40 -3 -40 -20 0 -17
-7 -20 -40 -20 -33 0 -40 -3 -40 -20 0 -17 -7 -20 -40 -20 -33 0 -40 -3 -40
-20 0 -13 7 -20 20 -20 13 0 20 -7 20 -20 0 -13 7 -20 20 -20 13 0 20 7 20 20
0 17 7 20 40 20 33 0 40 -3 40 -20 0 -13 -7 -20 -20 -20 -13 0 -20 -7 -20 -20
0 -19 -7 -20 -105 -20 -98 0 -105 -1 -105 -20 0 -13 -7 -20 -20 -20 -15 0 -20
-7 -20 -25 0 -22 -4 -25 -40 -25 -33 0 -40 -3 -40 -20 0 -17 -7 -20 -40 -20
-33 0 -40 -3 -40 -20 0 -17 -7 -20 -40 -20 -33 0 -40 -3 -40 -20 0 -17 -7 -20
-40 -20 -33 0 -40 -3 -40 -20 0 -15 -7 -20 -25 -20 -18 0 -25 -5 -25 -20 0
-17 -7 -20 -40 -20 -33 0 -40 -3 -40 -20 0 -17 -7 -20 -40 -20 -33 0 -40 -3
-40 -20 0 -13 -7 -20 -20 -20 -13 0 -20 -7 -20 -20 0 -18 -7 -20 -60 -20 -53
0 -60 -2 -60 -20 0 -13 -7 -20 -20 -20 -15 0 -20 -7 -20 -25 0 -18 -5 -25 -20
-25 -13 0 -20 -7 -20 -20 0 -17 -7 -20 -45 -20 -38 0 -45 -3 -45 -20 0 -17 -7
-20 -40 -20 -33 0 -40 3 -40 20 0 13 7 20 20 20 13 0 20 7 20 20 0 13 7 20 20
20 15 0 20 7 20 25 0 18 -5 25 -20 25 -15 0 -20 -7 -20 -25 0 -18 -5 -25 -20
-25 -13 0 -20 -7 -20 -20 0 -13 -7 -20 -20 -20 -13 0 -20 -7 -20 -20 0 -13 -7
-20 -20 -20 -13 0 -20 -7 -20 -20 0 -13 -7 -20 -20 -20 -13 0 -20 -7 -20 -20
0 -13 -7 -20 -20 -20 -13 0 -20 -7 -20 -20 0 -17 -7 -20 -40 -20 -33 0 -40 -3
-40 -20 0 -15 -7 -20 -25 -20 -18 0 -25 -5 -25 -20 0 -18 -7 -20 -60 -20 -53
0 -60 -2 -60 -20 0 -13 -7 -20 -20 -20 -13 0 -20 -7 -20 -20 0 -17 -7 -20 -40
-20 -33 0 -40 -3 -40 -20 0 -13 -7 -20 -20 -20 -15 0 -20 -7 -20 -25 0 -18 -5
-25 -20 -25 -13 0 -20 -7 -20 -20 0 -13 -7 -20 -20 -20 -17 0 -20 7 -20 45 0
38 -3 45 -20 45 -13 0 -20 7 -20 20 0 15 -7 20 -25 20 -22 0 -25 4 -25 40 0
33 -3 40 -20 40 -17 0 -20 7 -20 40 0 33 -3 40 -20 40 -13 0 -20 7 -20 20 0
13 -7 20 -20 20 -13 0 -20 7 -20 20 0 13 -7 20 -20 20 -13 0 -20 7 -20 20 0
13 -7 20 -20 20 -13 0 -20 7 -20 20 0 13 -7 20 -20 20 -13 0 -20 7 -20 20 0
13 -7 20 -20 20 -15 0 -20 7 -20 25 0 18 -5 25 -20 25 -13 0 -20 7 -20 20 0
13 -7 20 -20 20 -13 0 -20 7 -20 20 0 15 -7 20 -25 20 -18 0 -25 5 -25 20 0
17 -7 20 -40 20 -33 0 -40 3 -40 20 0 17 -7 20 -40 20 -33 0 -40 3 -40 20 0
18 -7 20 -80 20 -73 0 -80 -2 -80 -20 0 -13 -7 -20 -20 -20 -19 0 -20 -7 -20
-105 0 -98 1 -105 20 -105 17 0 20 -7 20 -40 0 -33 3 -40 20 -40 20 0 20 -7
20 -345 0 -338 0 -345 -20 -345 -13 0 -20 -7 -20 -20 0 -13 -7 -20 -20 -20
-13 0 -20 7 -20 20 0 15 -7 20 -25 20 -18 0 -25 5 -25 20 0 13 -7 20 -20 20
-13 0 -20 7 -20 20 0 17 -7 20 -40 20 -33 0 -40 3 -40 20 0 17 -7 20 -40 20
-33 0 -40 3 -40 20 0 17 -7 20 -40 20 -33 0 -40 3 -40 20 0 17 -7 20 -40 20
-33 0 -40 3 -40 20 0 19 -7 20 -105 20 -98 0 -105 1 -105 20 0 19 -7 20 -165
20 -158 0 -165 -1 -165 -20 0 -13 -7 -20 -20 -20 -18 0 -20 -7 -20 -60 0 -53
2 -60 20 -60 13 0 20 -7 20 -20 0 -13 -7 -20 -20 -20 -13 0 -20 -7 -20 -20 0
-13 7 -20 20 -20 18 0 20 -7 20 -85 0 -78 2 -85 20 -85 17 0 20 -7 20 -40 0
-36 3 -40 25 -40 23 0 25 -4 25 -40 0 -33 3 -40 20 -40 17 0 20 -7 20 -40 0
-33 3 -40 20 -40 17 0 20 -7 20 -40 0 -33 3 -40 20 -40 15 0 20 -7 20 -25 0
-18 5 -25 20 -25 17 0 20 -7 20 -40 0 -33 3 -40 20 -40 13 0 20 -7 20 -20 0
-13 7 -20 20 -20 17 0 20 -7 20 -40 0 -33 3 -40 20 -40 13 0 20 -7 20 -20 0
-13 7 -20 20 -20 17 0 20 -7 20 -40 0 -33 3 -40 20 -40 19 0 20 -7 20 -165 l0
-165 25 0 25 0 0 -145 0 -145 -25 0 -25 0 0 125 c0 118 -1 125 -20 125 -19 0
-20 -7 -20 -185 0 -178 -1 -185 -20 -185 -19 0 -20 -7 -20 -145 0 -138 -1
-145 -20 -145 -17 0 -20 -7 -20 -40 0 -33 -3 -40 -20 -40 -17 0 -20 -7 -20
-40 0 -33 -3 -40 -20 -40 -17 0 -20 -7 -20 -40 0 -33 -3 -40 -20 -40 -13 0
-20 -7 -20 -20 0 -17 -7 -20 -40 -20 -33 0 -40 -3 -40 -20 0 -13 -7 -20 -20
-20 -15 0 -20 -7 -20 -25 0 -20 -5 -25 -25 -25 -18 0 -25 -5 -25 -20 0 -13 -7
-20 -20 -20 -13 0 -20 -7 -20 -20 0 -13 -7 -20 -20 -20 -13 0 -20 -7 -20 -20
0 -13 -7 -20 -20 -20 -13 0 -20 -7 -20 -20 0 -17 -7 -20 -40 -20 -33 0 -40 -3
-40 -20 0 -13 -7 -20 -20 -20 -13 0 -20 -7 -20 -20 0 -13 -7 -20 -20 -20 -13
0 -20 -7 -20 -20 0 -13 -7 -20 -20 -20 -13 0 -20 -7 -20 -20 0 -13 -7 -20 -20
-20 -13 0 -20 -7 -20 -20 0 -13 -7 -20 -20 -20 -15 0 -20 -7 -20 -25 0 -20 -5
-25 -25 -25 -18 0 -25 -5 -25 -20 0 -13 -7 -20 -20 -20 -13 0 -20 -7 -20 -20
0 -13 -7 -20 -20 -20 -13 0 -20 -7 -20 -20 0 -13 -7 -20 -20 -20 -13 0 -20 -7
-20 -20 0 -13 -7 -20 -20 -20 -17 0 -20 -7 -20 -40 0 -33 -3 -40 -20 -40 -13
0 -20 -7 -20 -20 0 -13 -7 -20 -20 -20 -13 0 -20 -7 -20 -20 0 -13 -7 -20 -20
-20 -13 0 -20 -7 -20 -20 0 -13 -7 -20 -20 -20 -13 0 -20 -7 -20 -20 0 -13 -7
-20 -20 -20 -15 0 -20 -7 -20 -25 0 -20 -5 -25 -25 -25 -22 0 -25 -4 -25 -40
0 -33 -3 -40 -20 -40 -13 0 -20 -7 -20 -20 0 -13 -7 -20 -20 -20 -13 0 -20 -7
-20 -20 0 -13 -7 -20 -20 -20 -17 0 -20 -7 -20 -40 0 -33 -3 -40 -20 -40 -13
0 -20 -7 -20 -20 0 -13 -7 -20 -20 -20 -13 0 -20 -7 -20 -20 0 -13 7 -20 20
-20 13 0 20 7 20 20 0 13 7 20 20 20 13 0 20 7 20 20 0 13 7 20 20 20 17 0 20
7 20 40 0 33 3 40 20 40 13 0 20 7 20 20 0 13 7 20 20 20 13 0 20 7 20 20 0
15 7 20 25 20 18 0 25 5 25 20 0 13 7 20 20 20 17 0 20 7 20 45 0 38 3 45 20
45 13 0 20 7 20 20 0 13 7 20 20 20 13 0 20 7 20 20 0 13 7 20 20 20 13 0 20
7 20 20 0 13 7 20 20 20 13 0 20 7 20 20 0 13 7 20 20 20 13 0 20 7 20 20 0
13 7 20 20 20 13 0 20 7 20 20 0 13 7 20 20 20 13 0 20 7 20 20 0 13 7 20 20
20 13 0 20 7 20 20 0 15 7 20 25 20 18 0 25 5 25 20 0 13 7 20 20 20 13 0 20
7 20 20 0 13 7 20 20 20 15 0 20 7 20 25 0 18 5 25 20 25 13 0 20 7 20 20 0
13 7 20 20 20 13 0 20 7 20 20 0 13 7 20 20 20 13 0 20 7 20 20 0 13 7 20 20
20 13 0 20 7 20 20 0 13 7 20 20 20 13 0 20 7 20 20 0 13 7 20 20 20 13 0 20
7 20 20 0 13 7 20 20 20 13 0 20 7 20 20 0 13 7 20 20 20 13 0 20 7 20 20 0
15 7 20 25 20 18 0 25 5 25 20 0 17 7 20 40 20 33 0 40 -3 40 -20 0 -13 -7
-20 -20 -20 -13 0 -20 -7 -20 -20 0 -13 -7 -20 -20 -20 -17 0 -20 -7 -20 -40
0 -36 -2 -40 -25 -40 -18 0 -25 -5 -25 -20 0 -13 -7 -20 -20 -20 -13 0 -20 -7
-20 -20 0 -13 -7 -20 -20 -20 -17 0 -20 -7 -20 -40 0 -33 -3 -40 -20 -40 -13
0 -20 -7 -20 -20 0 -13 -7 -20 -20 -20 -15 0 -20 -7 -20 -25 0 -18 -5 -25 -20
-25 -13 0 -20 -7 -20 -20 0 -13 -7 -20 -20 -20 -17 0 -20 -7 -20 -40 0 -33 -3
-40 -20 -40 -13 0 -20 -7 -20 -20 0 -13 -7 -20 -20 -20 -13 0 -20 -7 -20 -20
0 -13 -7 -20 -20 -20 -13 0 -20 -7 -20 -20 0 -13 -7 -20 -20 -20 -17 0 -20 -7
-20 -40 0 -36 -2 -40 -25 -40 -18 0 -25 5 -25 20 0 13 -7 20 -20 20 -13 0 -20
-7 -20 -20 0 -13 7 -20 20 -20 17 0 20 -7 20 -40 0 -33 -3 -40 -20 -40 -15 0
-20 -7 -20 -25 0 -18 -5 -25 -20 -25 -13 0 -20 -7 -20 -20 0 -13 -7 -20 -20
-20 -17 0 -20 -7 -20 -40 0 -33 -3 -40 -20 -40 -13 0 -20 -7 -20 -20 0 -13 -7
-20 -20 -20 -13 0 -20 -7 -20 -20 0 -13 -7 -20 -20 -20 -13 0 -20 -7 -20 -20
0 -13 -7 -20 -20 -20 -13 0 -20 -7 -20 -20 0 -13 -7 -20 -20 -20 -13 0 -20 -7
-20 -20 0 -13 7 -20 20 -20 13 0 20 7 20 20 0 13 7 20 20 20 17 0 20 -7 20
-40 0 -33 -3 -40 -20 -40 -15 0 -20 -7 -20 -25 0 -18 -5 -25 -20 -25 -17 0
-20 -7 -20 -40 0 -33 -3 -40 -20 -40 -13 0 -20 -7 -20 -20 0 -15 -7 -20 -25
-20 -18 0 -25 -5 -25 -20 0 -13 -7 -20 -20 -20 -17 0 -20 -7 -20 -40 0 -33 -3
-40 -20 -40 -13 0 -20 -7 -20 -20 0 -13 -7 -20 -20 -20 -17 0 -20 -7 -20 -40
0 -33 -3 -40 -20 -40 -17 0 -20 -7 -20 -45 l0 -45 -40 0 -40 0 0 -40 c0 -33
-3 -40 -20 -40 -13 0 -20 -7 -20 -20 0 -13 -7 -20 -20 -20 -17 0 -20 -7 -20
-40 0 -33 -3 -40 -20 -40 -17 0 -20 -7 -20 -40 0 -36 -2 -40 -25 -40 -18 0
-25 -5 -25 -20 0 -13 -7 -20 -20 -20 -17 0 -20 -7 -20 -45 0 -38 -3 -45 -20
-45 -13 0 -20 -7 -20 -20 0 -13 -7 -20 -20 -20 -17 0 -20 -7 -20 -40 0 -33 -3
-40 -20 -40 -13 0 -20 -7 -20 -20 0 -13 -7 -20 -20 -20 -17 0 -20 -7 -20 -40
0 -33 -3 -40 -20 -40 -17 0 -20 -7 -20 -40 0 -33 -3 -40 -20 -40 -13 0 -20 -7
-20 -20 0 -13 -7 -20 -20 -20 -17 0 -20 -7 -20 -45 0 -38 -3 -45 -20 -45 -17
0 -20 -7 -20 -40 0 -33 -3 -40 -20 -40 -18 0 -20 -7 -20 -60 0 -57 -1 -60 -25
-60 -22 0 -25 -4 -25 -40 0 -33 -3 -40 -20 -40 -18 0 -20 -7 -20 -85 0 -78 -2
-85 -20 -85 -18 0 -20 -7 -20 -80 0 -73 -2 -80 -20 -80 -19 0 -20 -7 -20 -105
0 -98 1 -105 20 -105 17 0 20 -7 20 -40 0 -33 3 -40 20 -40 13 0 20 -7 20 -20
0 -13 7 -20 20 -20 13 0 20 7 20 20 0 15 7 20 25 20 18 0 25 5 25 20 0 13 7
20 20 20 17 0 20 7 20 45 0 38 3 45 20 45 13 0 20 7 20 20 0 17 7 20 40 20 33
0 40 3 40 20 0 13 7 20 20 20 13 0 20 7 20 20 0 13 7 20 20 20 19 0 20 -7 20
-145 0 -138 -1 -145 -20 -145 -19 0 -20 -7 -20 -120 0 -113 -1 -120 -20 -120
-13 0 -20 -7 -20 -20 0 -13 7 -20 20 -20 15 0 20 -7 20 -25 0 -18 5 -25 20
-25 20 0 20 -7 20 -345 0 -338 0 -345 -20 -345 -19 0 -20 -7 -20 -125 0 -118
1 -125 20 -125 19 0 20 7 20 105 0 98 1 105 20 105 20 0 20 -7 20 -330 0 -323
0 -330 20 -330 13 0 20 -7 20 -20 0 -13 -7 -20 -20 -20 -18 0 -20 -7 -20 -60
0 -53 2 -60 20 -60 19 0 20 -7 20 -245 0 -238 -1 -245 -20 -245 -18 0 -20 -7
-20 -65 0 -58 -2 -65 -20 -65 -13 0 -20 -7 -20 -20 0 -13 -7 -20 -20 -20 -17
0 -20 -7 -20 -40 0 -33 -3 -40 -20 -40 -13 0 -20 -7 -20 -20 0 -13 -7 -20 -20
-20 -13 0 -20 -7 -20 -20 0 -13 -7 -20 -20 -20 -17 0 -20 -7 -20 -40 0 -33 -3
-40 -20 -40 -13 0 -20 -7 -20 -20 0 -17 -7 -20 -45 -20 -41 0 -45 -2 -45 -25
0 -18 -5 -25 -20 -25 -13 0 -20 -7 -20 -20 0 -13 -7 -20 -20 -20 -13 0 -20 -7
-20 -20 0 -13 -7 -20 -20 -20 -13 0 -20 -7 -20 -20 0 -13 -7 -20 -20 -20 -13
0 -20 -7 -20 -20 0 -13 -7 -20 -20 -20 -13 0 -20 -7 -20 -20 0 -13 -7 -20 -20
-20 -13 0 -20 -7 -20 -20 0 -13 -7 -20 -20 -20 -13 0 -20 -7 -20 -20 0 -13 -7
-20 -20 -20 -13 0 -20 -7 -20 -20 0 -13 -7 -20 -20 -20 -17 0 -20 -7 -20 -40
0 -36 -2 -40 -25 -40 -23 0 -25 -4 -25 -45 0 -38 -3 -45 -20 -45 -13 0 -20 -7
-20 -20 0 -13 -7 -20 -20 -20 -13 0 -20 -7 -20 -20 0 -13 -7 -20 -20 -20 -13
0 -20 -7 -20 -20 0 -13 -7 -20 -20 -20 -13 0 -20 -7 -20 -20 0 -13 -7 -20 -20
-20 -13 0 -20 -7 -20 -20 0 -13 -7 -20 -20 -20 -17 0 -20 -7 -20 -40 0 -33 -3
-40 -20 -40 -13 0 -20 -7 -20 -20 0 -13 -7 -20 -20 -20 -17 0 -20 -7 -20 -45
0 -38 -3 -45 -20 -45 -13 0 -20 -7 -20 -20 0 -13 -7 -20 -20 -20 -17 0 -20 -7
-20 -40 0 -36 -2 -40 -25 -40 -22 0 -25 -4 -25 -40 l0 -40 45 0 c38 0 45 -3
45 -20 0 -19 7 -20 120 -20 113 0 120 1 120 20 0 19 7 20 105 20 98 0 105 1
105 20 0 18 7 20 60 20 53 0 60 2 60 20 0 18 7 20 60 20 53 0 60 2 60 20 0 17
7 20 40 20 33 0 40 3 40 20 0 18 7 20 65 20 58 0 65 2 65 20 0 17 7 20 40 20
33 0 40 3 40 20 0 17 7 20 40 20 36 0 40 3 40 25 0 23 4 25 40 25 33 0 40 3
40 20 0 13 7 20 20 20 13 0 20 7 20 20 0 13 7 20 20 20 13 0 20 7 20 20 0 15
7 20 25 20 18 0 25 5 25 20 0 17 7 20 40 20 33 0 40 3 40 20 0 17 7 20 40 20
l40 0 0 -165 c0 -158 1 -165 20 -165 19 0 20 -7 20 -120 0 -113 1 -120 20
-120 19 0 20 -7 20 -205 0 -198 -1 -205 -20 -205 -13 0 -20 -7 -20 -20 0 -13
-7 -20 -20 -20 -13 0 -20 -7 -20 -20 0 -13 -7 -20 -20 -20 -15 0 -20 -7 -20
-25 0 -22 -4 -25 -40 -25 -33 0 -40 -3 -40 -20 0 -17 -7 -20 -45 -20 -38 0
-45 -3 -45 -20 0 -19 -7 -20 -225 -20 -218 0 -225 1 -225 20 0 18 -7 20 -80
20 -73 0 -80 -2 -80 -20 0 -13 -7 -20 -20 -20 -18 0 -20 -7 -20 -60 0 -53 2
-60 20 -60 13 0 20 -7 20 -20 0 -13 7 -20 20 -20 17 0 20 -7 20 -40 0 -33 3
-40 20 -40 13 0 20 -7 20 -20 0 -13 7 -20 20 -20 15 0 20 -7 20 -25 0 -18 5
-25 20 -25 13 0 20 -7 20 -20 0 -15 7 -20 25 -20 18 0 25 -5 25 -20 0 -17 7
-20 40 -20 33 0 40 -3 40 -20 0 -17 7 -20 40 -20 33 0 40 -3 40 -20 0 -18 7
-20 60 -20 53 0 60 -2 60 -20 0 -18 7 -20 60 -20 53 0 60 -2 60 -20 0 -18 7
-20 65 -20 58 0 65 2 65 20 0 18 7 20 80 20 73 0 80 2 80 20 0 17 7 20 40 20
33 0 40 3 40 20 0 17 7 20 45 20 38 0 45 3 45 20 0 17 7 20 40 20 33 0 40 3
40 20 0 13 7 20 20 20 13 0 20 7 20 20 0 17 7 20 40 20 33 0 40 -3 40 -20 0
-13 7 -20 20 -20 13 0 20 -7 20 -20 0 -13 7 -20 20 -20 13 0 20 -7 20 -20 0
-13 7 -20 20 -20 17 0 20 -7 20 -40 0 -33 3 -40 20 -40 17 0 20 -7 20 -40 0
-36 3 -40 25 -40 24 0 25 -3 25 -60 0 -53 2 -60 20 -60 15 0 20 -7 20 -25 0
-18 5 -25 20 -25 17 0 20 -7 20 -40 0 -33 3 -40 20 -40 17 0 20 -7 20 -40 0
-33 3 -40 20 -40 17 0 20 -7 20 -40 0 -33 3 -40 20 -40 13 0 20 -7 20 -20 0
-13 7 -20 20 -20 17 0 20 -7 20 -40 l0 -40 40 0 c36 0 40 -2 40 -25 0 -18 5
-25 20 -25 13 0 20 -7 20 -20 0 -13 7 -20 20 -20 13 0 20 -7 20 -20 0 -15 7
-20 25 -20 18 0 25 -5 25 -20 0 -13 7 -20 20 -20 13 0 20 -7 20 -20 0 -13 7
-20 20 -20 13 0 20 -7 20 -20 0 -13 7 -20 20 -20 13 0 20 -7 20 -20 0 -13 7
-20 20 -20 13 0 20 -7 20 -20 0 -13 7 -20 20 -20 13 0 20 -7 20 -20 0 -13 7
-20 20 -20 13 0 20 -7 20 -20 0 -13 7 -20 20 -20 13 0 20 -7 20 -20 0 -13 7
-20 20 -20 15 0 20 -7 20 -25 0 -23 4 -25 45 -25 38 0 45 -3 45 -20 0 -13 7
-20 20 -20 13 0 20 -7 20 -20 0 -13 7 -20 20 -20 13 0 20 -7 20 -20 0 -13 7
-20 20 -20 19 0 20 -7 20 -100 0 -93 1 -100 20 -100 17 0 20 -7 20 -45 0 -38
3 -45 20 -45 18 0 20 -7 20 -60 0 -53 2 -60 20 -60 18 0 20 -7 20 -60 0 -53 2
-60 20 -60 17 0 20 -7 20 -40 0 -33 3 -40 20 -40 19 0 20 -7 20 -105 0 -98 1
-105 20 -105 17 0 20 -7 20 -40 0 -33 3 -40 20 -40 13 0 20 -7 20 -20 0 -13
-7 -20 -20 -20 -13 0 -20 -7 -20 -20 0 -13 7 -20 20 -20 18 0 20 -7 20 -60 l0
-60 45 0 45 0 0 -85 c0 -78 2 -85 20 -85 13 0 20 -7 20 -20 0 -13 7 -20 20
-20 17 0 20 -7 20 -40 0 -33 3 -40 20 -40 17 0 20 -7 20 -40 0 -33 3 -40 20
-40 17 0 20 -7 20 -45 0 -38 3 -45 20 -45 17 0 20 -7 20 -40 0 -33 3 -40 20
-40 17 0 20 -7 20 -40 0 -33 3 -40 20 -40 13 0 20 -7 20 -20 0 -13 7 -20 20
-20 18 0 20 -7 20 -60 0 -57 1 -60 25 -60 23 0 25 -4 25 -40 0 -33 3 -40 20
-40 17 0 20 -7 20 -45 0 -38 3 -45 20 -45 13 0 20 -7 20 -20 0 -13 7 -20 20
-20 18 0 20 -7 20 -60 0 -53 2 -60 20 -60 13 0 20 -7 20 -20 0 -13 7 -20 20
-20 17 0 20 -7 20 -40 0 -33 3 -40 20 -40 13 0 20 -7 20 -20 0 -13 7 -20 20
-20 17 0 20 -7 20 -45 0 -38 3 -45 20 -45 17 0 20 -7 20 -40 0 -33 3 -40 20
-40 17 0 20 -7 20 -40 l0 -40 45 0 45 0 0 -40 c0 -33 3 -40 20 -40 13 0 20 -7
20 -20 0 -13 7 -20 20 -20 13 0 20 -7 20 -20 0 -13 7 -20 20 -20 17 0 20 -7
20 -45 0 -38 3 -45 20 -45 17 0 20 -7 20 -40 0 -33 3 -40 20 -40 13 0 20 -7
20 -20 0 -13 7 -20 20 -20 13 0 20 -7 20 -20 0 -13 7 -20 20 -20 13 0 20 -7
20 -20 0 -13 7 -20 20 -20 17 0 20 -7 20 -40 0 -33 3 -40 20 -40 13 0 20 -7
20 -20 0 -15 7 -20 25 -20 23 0 25 -4 25 -45 0 -38 3 -45 20 -45 17 0 20 -7
20 -40 0 -33 3 -40 20 -40 13 0 20 -7 20 -20 0 -17 7 -20 40 -20 l40 0 0 -40
c0 -33 3 -40 20 -40 13 0 20 -7 20 -20 0 -17 7 -20 40 -20 33 0 40 -3 40 -20
0 -13 7 -20 20 -20 17 0 20 -7 20 -40 l0 -40 45 0 45 0 0 -45 0 -45 40 0 c33
0 40 -3 40 -20 0 -13 7 -20 20 -20 13 0 20 -7 20 -20 0 -17 7 -20 40 -20 33 0
40 -3 40 -20 0 -13 7 -20 20 -20 13 0 20 -7 20 -20 0 -17 7 -20 40 -20 33 0
40 -3 40 -20 0 -13 7 -20 20 -20 13 0 20 -7 20 -20 0 -13 7 -20 20 -20 13 0
20 -7 20 -20 0 -17 7 -20 45 -20 38 0 45 -3 45 -20 0 -13 7 -20 20 -20 13 0
20 -7 20 -20 0 -13 7 -20 20 -20 15 0 20 -7 20 -25 0 -22 4 -25 40 -25 33 0
40 -3 40 -20 0 -17 7 -20 40 -20 33 0 40 -3 40 -20 0 -13 7 -20 20 -20 13 0
20 -7 20 -20 0 -13 7 -20 20 -20 13 0 20 -7 20 -20 0 -15 7 -20 25 -20 18 0
25 -5 25 -20 0 -17 7 -20 40 -20 33 0 40 -3 40 -20 0 -13 7 -20 20 -20 13 0
20 -7 20 -20 0 -13 7 -20 20 -20 13 0 20 -7 20 -20 0 -13 7 -20 20 -20 13 0
20 -7 20 -20 0 -13 7 -20 20 -20 15 0 20 -7 20 -25 0 -22 4 -25 40 -25 33 0
40 -3 40 -20 0 -17 7 -20 40 -20 33 0 40 -3 40 -20 0 -15 7 -20 25 -20 18 0
25 -5 25 -20 0 -17 7 -20 40 -20 33 0 40 -3 40 -20 0 -17 7 -20 40 -20 33 0
40 -3 40 -20 0 -18 7 -20 60 -20 53 0 60 -2 60 -20 0 -17 7 -20 40 -20 33 0
40 -3 40 -20 0 -15 7 -20 25 -20 18 0 25 5 25 20 0 13 7 20 20 20 13 0 20 7
20 20 0 13 -7 20 -20 20 -18 0 -20 7 -20 60 l0 60 -45 0 c-38 0 -45 3 -45 20
0 13 -7 20 -20 20 -13 0 -20 7 -20 20 0 13 -7 20 -20 20 -15 0 -20 7 -20 25 0
23 -4 25 -40 25 -33 0 -40 3 -40 20 0 13 -7 20 -20 20 -13 0 -20 7 -20 20 0
13 -7 20 -20 20 -13 0 -20 7 -20 20 0 18 -7 20 -65 20 -58 0 -65 2 -65 20 0
13 -7 20 -20 20 -13 0 -20 7 -20 20 0 13 -7 20 -20 20 -13 0 -20 7 -20 20 0
13 -7 20 -20 20 -13 0 -20 7 -20 20 0 17 -7 20 -40 20 -33 0 -40 3 -40 20 0
17 -7 20 -40 20 -33 0 -40 3 -40 20 0 17 -7 20 -40 20 -36 0 -40 3 -40 25 0
24 -2 25 -65 25 -58 0 -65 2 -65 20 0 13 -7 20 -20 20 -13 0 -20 7 -20 20 0
18 -7 20 -60 20 -53 0 -60 2 -60 20 0 13 -7 20 -20 20 -13 0 -20 7 -20 20 0
17 -7 20 -40 20 -33 0 -40 3 -40 20 0 17 -7 20 -45 20 l-45 0 0 40 c0 33 -3
40 -20 40 -13 0 -20 7 -20 20 0 13 -7 20 -20 20 -13 0 -20 7 -20 20 0 17 -7
20 -40 20 -33 0 -40 3 -40 20 0 17 -7 20 -40 20 -36 0 -40 3 -40 25 0 18 -5
25 -20 25 -17 0 -20 7 -20 40 l0 40 -40 0 c-33 0 -40 3 -40 20 0 13 -7 20 -20
20 -13 0 -20 7 -20 20 0 15 -7 20 -25 20 -18 0 -25 5 -25 20 0 13 -7 20 -20
20 -13 0 -20 7 -20 20 0 13 -7 20 -20 20 -13 0 -20 7 -20 20 0 13 -7 20 -20
20 -17 0 -20 7 -20 40 0 33 -3 40 -20 40 -15 0 -20 7 -20 25 0 18 -5 25 -20
25 -13 0 -20 7 -20 20 0 13 -7 20 -20 20 -17 0 -20 7 -20 40 0 33 -3 40 -20
40 -13 0 -20 7 -20 20 0 13 -7 20 -20 20 -13 0 -20 7 -20 20 0 13 -7 20 -20
20 -13 0 -20 7 -20 20 0 15 -7 20 -25 20 -22 0 -25 4 -25 40 0 33 -3 40 -20
40 -13 0 -20 7 -20 20 0 13 -7 20 -20 20 -17 0 -20 7 -20 45 0 38 -3 45 -20
45 -17 0 -20 7 -20 40 0 33 -3 40 -20 40 -13 0 -20 7 -20 20 0 13 -7 20 -20
20 -13 0 -20 7 -20 20 0 17 -7 20 -40 20 l-40 0 0 40 c0 33 3 40 20 40 13 0
20 7 20 20 0 18 -7 20 -60 20 l-60 0 0 40 c0 33 -3 40 -20 40 -17 0 -20 7 -20
45 0 41 -2 45 -25 45 -24 0 -25 3 -25 60 0 53 -2 60 -20 60 -13 0 -20 7 -20
20 0 13 -7 20 -20 20 -17 0 -20 7 -20 40 0 33 -3 40 -20 40 -13 0 -20 7 -20
20 0 13 -7 20 -20 20 -17 0 -20 7 -20 45 0 38 -3 45 -20 45 -17 0 -20 7 -20
40 0 33 -3 40 -20 40 -13 0 -20 7 -20 20 0 13 -7 20 -20 20 -17 0 -20 7 -20
40 0 33 -3 40 -20 40 -18 0 -20 7 -20 60 0 53 -2 60 -20 60 -17 0 -20 7 -20
40 0 36 -2 40 -25 40 -20 0 -25 5 -25 25 0 18 -5 25 -20 25 -18 0 -20 7 -20
60 0 53 -2 60 -20 60 -18 0 -20 7 -20 60 0 53 -2 60 -20 60 -18 0 -20 7 -20
60 0 53 -2 60 -20 60 -15 0 -20 7 -20 25 0 18 -5 25 -20 25 -18 0 -20 7 -20
60 0 53 -2 60 -20 60 -18 0 -20 7 -20 80 0 73 -2 80 -20 80 -18 0 -20 7 -20
85 0 78 -2 85 -20 85 -18 0 -20 7 -20 60 0 53 -2 60 -20 60 -13 0 -20 7 -20
20 0 15 -7 20 -25 20 -25 0 -25 1 -25 80 0 79 0 80 25 80 18 0 25 5 25 20 0
15 -7 20 -25 20 -23 0 -25 4 -25 45 0 38 -3 45 -20 45 -17 0 -20 7 -20 40 0
33 -3 40 -20 40 -19 0 -20 7 -20 100 0 93 -1 100 -20 100 -18 0 -20 7 -20 65
0 58 -2 65 -20 65 -17 0 -20 7 -20 40 0 33 -3 40 -20 40 -19 0 -20 7 -20 100
0 93 -1 100 -20 100 -13 0 -20 7 -20 20 0 13 7 20 20 20 13 0 20 7 20 20 0 13
-7 20 -20 20 -17 0 -20 7 -20 45 0 38 -3 45 -20 45 -19 0 -20 7 -20 205 0 198
1 205 20 205 17 0 20 7 20 40 0 33 3 40 20 40 19 0 20 7 20 120 0 113 1 120
20 120 18 0 20 7 20 65 0 58 -2 65 -20 65 -18 0 -20 7 -20 80 0 73 -2 80 -20
80 -18 0 -20 7 -20 80 0 73 -2 80 -20 80 -19 0 -20 7 -20 145 0 138 -1 145
-20 145 -18 0 -20 7 -20 60 0 53 -2 60 -20 60 -19 0 -20 7 -20 105 0 98 -1
105 -20 105 -20 0 -20 7 -20 470 l0 470 -25 0 c-25 0 -25 1 -25 80 0 73 -2 80
-20 80 -19 0 -20 7 -20 250 0 243 1 250 20 250 19 0 20 7 20 180 l0 180 25 0
25 0 0 105 c0 98 1 105 20 105 18 0 20 7 20 80 0 73 2 80 20 80 17 0 20 7 20
45 0 38 3 45 20 45 18 0 20 7 20 60 0 53 2 60 20 60 17 0 20 7 20 40 0 33 3
40 20 40 17 0 20 7 20 40 0 33 3 40 20 40 17 0 20 7 20 40 0 33 3 40 20 40 17
0 20 7 20 45 0 38 3 45 20 45 17 0 20 7 20 40 0 33 3 40 20 40 17 0 20 7 20
40 0 33 3 40 20 40 17 0 20 7 20 40 0 36 3 40 25 40 18 0 25 5 25 20 0 13 7
20 20 20 13 0 20 -7 20 -20 0 -13 7 -20 20 -20 13 0 20 -7 20 -20 0 -13 7 -20
20 -20 17 0 20 -7 20 -40 0 -33 3 -40 20 -40 13 0 20 -7 20 -20 0 -13 7 -20
20 -20 13 0 20 -7 20 -20 0 -13 7 -20 20 -20 18 0 20 -7 20 -65 0 -58 2 -65
20 -65 17 0 20 -7 20 -40 0 -33 3 -40 20 -40 17 0 20 -7 20 -40 0 -33 3 -40
20 -40 17 0 20 -7 20 -40 0 -36 3 -40 25 -40 23 0 25 -4 25 -40 0 -33 3 -40
20 -40 13 0 20 -7 20 -20 0 -13 7 -20 20 -20 17 0 20 -7 20 -45 0 -38 3 -45
20 -45 13 0 20 -7 20 -20 0 -13 7 -20 20 -20 17 0 20 -7 20 -40 0 -33 3 -40
20 -40 13 0 20 -7 20 -20 0 -13 7 -20 20 -20 13 0 20 -7 20 -20 0 -13 7 -20
20 -20 13 0 20 -7 20 -20 0 -13 7 -20 20 -20 13 0 20 -7 20 -20 0 -13 7 -20
20 -20 13 0 20 -7 20 -20 0 -17 7 -20 45 -20 41 0 45 -2 45 -25 0 -22 4 -25
40 -25 33 0 40 -3 40 -20 0 -17 7 -20 40 -20 33 0 40 -3 40 -20 0 -18 7 -20
60 -20 53 0 60 -2 60 -20 0 -18 7 -20 65 -20 58 0 65 -2 65 -20 0 -19 7 -20
100 -20 93 0 100 1 100 20 0 13 7 20 20 20 17 0 20 7 20 40 0 33 3 40 20 40
20 0 20 7 20 410 0 403 0 410 20 410 17 0 20 7 20 45 0 38 3 45 20 45 18 0 20
7 20 60 0 57 1 60 25 60 23 0 25 4 25 40 0 33 3 40 20 40 17 0 20 7 20 40 0
33 3 40 20 40 17 0 20 7 20 40 0 33 3 40 20 40 13 0 20 7 20 20 0 13 7 20 20
20 15 0 20 7 20 25 0 18 5 25 20 25 13 0 20 7 20 20 0 13 7 20 20 20 13 0 20
7 20 20 0 17 7 20 40 20 33 0 40 3 40 20 0 17 7 20 40 20 33 0 40 3 40 20 0
18 7 20 65 20 58 0 65 2 65 20 0 19 7 20 225 20 218 0 225 -1 225 -20 0 -17 7
-20 40 -20 33 0 40 -3 40 -20 0 -17 7 -20 40 -20 33 0 40 -3 40 -20 0 -13 7
-20 20 -20 13 0 20 -7 20 -20 0 -13 7 -20 20 -20 13 0 20 -7 20 -20 0 -13 7
-20 20 -20 15 0 20 -7 20 -25 0 -23 4 -25 45 -25 38 0 45 -3 45 -20 0 -13 7
-20 20 -20 13 0 20 -7 20 -20 0 -13 7 -20 20 -20 17 0 20 -7 20 -40 0 -33 3
-40 20 -40 13 0 20 -7 20 -20 0 -18 7 -20 60 -20 53 0 60 -2 60 -20 0 -13 7
-20 20 -20 13 0 20 -7 20 -20 0 -17 7 -20 45 -20 38 0 45 -3 45 -20 0 -13 7
-20 20 -20 17 0 20 -7 20 -40 l0 -40 40 0 c36 0 40 -2 40 -25 0 -24 3 -25 60
-25 53 0 60 -2 60 -20 0 -13 7 -20 20 -20 13 0 20 -7 20 -20 0 -13 7 -20 20
-20 13 0 20 -7 20 -20 0 -13 7 -20 20 -20 13 0 20 7 20 20 0 15 7 20 25 20 18
0 25 -5 25 -20 0 -13 7 -20 20 -20 13 0 20 -7 20 -20 0 -17 7 -20 40 -20 33 0
40 -3 40 -20 0 -17 7 -20 40 -20 33 0 40 -3 40 -20 0 -17 7 -20 40 -20 33 0
40 -3 40 -20 0 -17 7 -20 40 -20 33 0 40 -3 40 -20 0 -17 7 -20 45 -20 38 0
45 -3 45 -20 0 -13 7 -20 20 -20 15 0 20 -7 20 -25 0 -22 4 -25 40 -25 33 0
40 -3 40 -20 0 -13 7 -20 20 -20 13 0 20 -7 20 -20 0 -18 7 -20 80 -20 73 0
80 -2 80 -20 0 -17 7 -20 45 -20 38 0 45 -3 45 -20 0 -18 7 -20 60 -20 53 0
60 -2 60 -20 0 -17 7 -20 40 -20 33 0 40 -3 40 -20 0 -17 7 -20 40 -20 33 0
40 -3 40 -20 0 -13 7 -20 20 -20 13 0 20 -7 20 -20 0 -19 7 -20 105 -20 98 0
105 -1 105 -20 0 -18 7 -20 80 -20 79 0 80 0 80 -25 0 -22 4 -25 40 -25 33 0
40 -3 40 -20 0 -18 7 -20 85 -20 78 0 85 -2 85 -20 0 -18 7 -20 80 -20 73 0
80 -2 80 -20 0 -19 7 -20 145 -20 138 0 145 -1 145 -20 0 -18 7 -20 80 -20 73
0 80 -2 80 -20 0 -17 7 -20 40 -20 33 0 40 -3 40 -20 0 -17 7 -20 45 -20 38 0
45 3 45 20 0 18 7 20 60 20 53 0 60 -2 60 -20 0 -19 7 -20 185 -20 178 0 185
-1 185 -20 0 -19 7 -20 265 -20 258 0 265 -1 265 -20 0 -19 7 -20 100 -20 93
0 100 1 100 20 0 15 7 20 25 20 18 0 25 -5 25 -20 0 -19 7 -20 120 -20 113 0
120 1 120 20 0 20 7 20 635 20 628 0 635 0 635 20 0 19 7 20 185 20 178 0 185
1 185 20 0 19 7 20 165 20 158 0 165 1 165 20 0 19 7 20 140 20 133 0 140 1
140 20 0 19 7 20 125 20 118 0 125 1 125 20 0 19 7 20 145 20 l145 0 0 40 0
40 60 0 c57 0 60 1 60 25 0 23 4 25 40 25 33 0 40 3 40 20 0 17 7 20 40 20 33
0 40 3 40 20 0 17 7 20 45 20 38 0 45 3 45 20 0 17 7 20 40 20 33 0 40 3 40
20 0 18 7 20 60 20 53 0 60 2 60 20 0 13 7 20 20 20 13 0 20 7 20 20 0 18 7
20 80 20 73 0 80 2 80 20 0 15 7 20 25 20 18 0 25 5 25 20 0 17 7 20 40 20 33
0 40 3 40 20 0 13 7 20 20 20 15 0 20 7 20 25 0 24 3 25 60 25 53 0 60 2 60
20 0 17 7 20 40 20 l40 0 0 40 c0 33 3 40 20 40 13 0 20 7 20 20 0 17 7 20 45
20 l45 0 0 40 c0 33 -3 40 -20 40 -13 0 -20 7 -20 20 0 18 -7 20 -85 20 -78 0
-85 2 -85 20 0 19 -7 20 -120 20 -113 0 -120 1 -120 20 0 18 -7 20 -65 20 -63
0 -65 1 -65 25 0 25 -1 25 -80 25 -73 0 -80 2 -80 20 0 18 -7 20 -80 20 l-80
0 0 40 c0 36 -2 40 -25 40 -18 0 -25 -5 -25 -20 0 -17 -7 -20 -40 -20 l-40 0
0 40 c0 33 -3 40 -20 40 -13 0 -20 -7 -20 -20 0 -13 -7 -20 -20 -20 -17 0 -20
7 -20 40 l0 40 -40 0 c-33 0 -40 3 -40 20 0 13 -7 20 -20 20 -18 0 -20 -7 -20
-60 l0 -60 -40 0 c-33 0 -40 3 -40 20 0 13 7 20 20 20 17 0 20 7 20 40 l0 40
-85 0 c-78 0 -85 2 -85 20 0 13 -7 20 -20 20 -13 0 -20 7 -20 20 0 13 -7 20
-20 20 -13 0 -20 -7 -20 -20 0 -13 -7 -20 -20 -20 -13 0 -20 -7 -20 -20 0 -13
7 -20 20 -20 13 0 20 -7 20 -20 0 -19 7 -20 105 -20 98 0 105 -1 105 -20 0
-19 -7 -20 -125 -20 -118 0 -125 1 -125 20 0 18 -7 20 -60 20 -53 0 -60 2 -60
20 0 17 -7 20 -45 20 -38 0 -45 3 -45 20 0 18 -7 20 -60 20 -53 0 -60 2 -60
20 0 18 -7 20 -80 20 -73 0 -80 2 -80 20 0 13 7 20 20 20 13 0 20 7 20 20 0
13 7 20 20 20 18 0 20 7 20 65 0 58 2 65 20 65 13 0 20 7 20 20 0 13 7 20 20
20 13 0 20 7 20 20 0 17 7 20 40 20 33 0 40 3 40 20 0 13 7 20 20 20 13 0 20
7 20 20 0 15 7 20 25 20 23 0 25 4 25 40 0 33 3 40 20 40 13 0 20 7 20 20 0
13 7 20 20 20 15 0 20 7 20 25 0 18 5 25 20 25 13 0 20 7 20 20 0 13 7 20 20
20 13 0 20 7 20 20 0 17 7 20 40 20 33 0 40 3 40 20 0 13 7 20 20 20 13 0 20
7 20 20 0 18 7 20 65 20 58 0 65 2 65 20 0 17 7 20 40 20 33 0 40 3 40 20 0
18 7 20 60 20 53 0 60 2 60 20 0 20 7 20 285 20 278 0 285 0 285 -20 0 -18 7
-20 85 -20 78 0 85 -2 85 -20 0 -18 7 -20 80 -20 73 0 80 -2 80 -20 0 -17 7
-20 40 -20 33 0 40 -3 40 -20 0 -17 7 -20 45 -20 38 0 45 -3 45 -20 0 -17 7
-20 40 -20 33 0 40 -3 40 -20 0 -13 7 -20 20 -20 13 0 20 -7 20 -20 0 -17 7
-20 40 -20 36 0 40 -2 40 -25 0 -18 5 -25 20 -25 13 0 20 -7 20 -20 0 -13 7
-20 20 -20 13 0 20 -7 20 -20 0 -13 7 -20 20 -20 17 0 20 -7 20 -40 0 -33 3
-40 20 -40 13 0 20 -7 20 -20 0 -13 7 -20 20 -20 13 0 20 -7 20 -20 0 -15 7
-20 25 -20 18 0 25 -5 25 -20 0 -13 7 -20 20 -20 17 0 20 -7 20 -40 0 -33 3
-40 20 -40 15 0 20 -7 20 -25 0 -18 5 -25 20 -25 17 0 20 -7 20 -40 0 -33 3
-40 20 -40 17 0 20 -7 20 -40 0 -33 3 -40 20 -40 13 0 20 -7 20 -20 0 -13 7
-20 20 -20 17 0 20 -7 20 -40 0 -33 3 -40 20 -40 18 0 20 -7 20 -85 0 -78 2
-85 20 -85 18 0 20 -7 20 -60 0 -53 2 -60 20 -60 18 0 20 -7 20 -80 0 -79 0
-80 25 -80 l25 0 0 -105 c0 -98 1 -105 20 -105 19 0 20 -7 20 -100 0 -93 1
-100 20 -100 19 0 20 -7 20 -125 0 -118 1 -125 20 -125 19 0 20 -7 20 -120 0
-113 1 -120 20 -120 19 0 20 -7 20 -145 0 -138 1 -145 20 -145 19 0 20 -7 20
-125 0 -118 1 -125 20 -125 19 0 20 -7 20 -160 0 -153 1 -160 20 -160 20 0 20
-7 20 -270 0 -263 0 -270 20 -270 13 0 20 -7 20 -20 0 -13 -7 -20 -20 -20 -20
0 -20 -7 -20 -325 0 -318 0 -325 -20 -325 -19 0 -20 -7 -20 -185 0 -178 -1
-185 -20 -185 -19 0 -20 -7 -20 -125 0 -118 -1 -125 -20 -125 -18 0 -20 -7
-20 -60 0 -53 -2 -60 -20 -60 -13 0 -20 -7 -20 -20 0 -13 7 -20 20 -20 17 0
20 -7 20 -40 0 -33 -3 -40 -20 -40 -18 0 -20 -7 -20 -85 0 -78 -2 -85 -20 -85
-18 0 -20 -7 -20 -60 0 -53 -2 -60 -20 -60 -18 0 -20 -7 -20 -80 0 -73 2 -80
20 -80 17 0 20 -7 20 -45 0 -38 -3 -45 -20 -45 -13 0 -20 -7 -20 -20 0 -13 7
-20 20 -20 13 0 20 -7 20 -20 0 -13 -7 -20 -20 -20 -17 0 -20 -7 -20 -40 0
-33 -3 -40 -20 -40 -17 0 -20 -7 -20 -40 0 -36 -2 -40 -25 -40 -25 0 -25 -1
-25 -80 0 -73 -2 -80 -20 -80 -18 0 -20 -7 -20 -85 0 -78 -2 -85 -20 -85 -18
0 -20 -7 -20 -80 0 -73 -2 -80 -20 -80 -17 0 -20 -7 -20 -40 0 -33 -3 -40 -20
-40 -15 0 -20 -7 -20 -25 0 -18 -5 -25 -20 -25 -13 0 -20 -7 -20 -20 0 -13 7
-20 20 -20 13 0 20 -7 20 -20 0 -13 -7 -20 -20 -20 -13 0 -20 -7 -20 -20 0
-13 -7 -20 -20 -20 -17 0 -20 -7 -20 -40 0 -33 -3 -40 -20 -40 -18 0 -20 -7
-20 -60 0 -53 -2 -60 -20 -60 -13 0 -20 -7 -20 -20 0 -13 -7 -20 -20 -20 -18
0 -20 -7 -20 -85 0 -84 0 -85 -25 -85 -18 0 -25 -5 -25 -20 0 -13 -7 -20 -20
-20 -18 0 -20 -7 -20 -60 0 -53 -2 -60 -20 -60 -13 0 -20 -7 -20 -20 0 -13 -7
-20 -20 -20 -17 0 -20 -7 -20 -40 0 -33 -3 -40 -20 -40 -17 0 -20 -7 -20 -45
0 -38 -3 -45 -20 -45 -17 0 -20 -7 -20 -40 0 -33 -3 -40 -20 -40 -13 0 -20 -7
-20 -20 0 -13 -7 -20 -20 -20 -13 0 -20 -7 -20 -20 0 -13 -7 -20 -20 -20 -17
0 -20 -7 -20 -40 0 -33 -3 -40 -20 -40 -13 0 -20 -7 -20 -20 0 -13 -7 -20 -20
-20 -13 0 -20 -7 -20 -20 0 -15 -7 -20 -25 -20 -23 0 -25 -4 -25 -45 0 -38 -3
-45 -20 -45 -13 0 -20 -7 -20 -20 0 -13 -7 -20 -20 -20 -17 0 -20 -7 -20 -40
0 -33 -3 -40 -20 -40 -17 0 -20 -7 -20 -40 0 -33 -3 -40 -20 -40 -13 0 -20 -7
-20 -20 0 -13 -7 -20 -20 -20 -17 0 -20 -7 -20 -40 0 -33 -3 -40 -20 -40 -17
0 -20 -7 -20 -45 0 -38 -3 -45 -20 -45 -13 0 -20 -7 -20 -20 0 -17 -7 -20 -40
-20 -33 0 -40 -3 -40 -20 0 -15 -7 -20 -25 -20 -22 0 -25 -4 -25 -40 0 -33 -3
-40 -20 -40 -13 0 -20 -7 -20 -20 0 -13 -7 -20 -20 -20 -13 0 -20 -7 -20 -20
0 -13 -7 -20 -20 -20 -17 0 -20 -7 -20 -40 l0 -40 -40 0 c-33 0 -40 -3 -40
-20 0 -13 -7 -20 -20 -20 -15 0 -20 -7 -20 -25 0 -18 -5 -25 -20 -25 -13 0
-20 -7 -20 -20 0 -13 -7 -20 -20 -20 -13 0 -20 -7 -20 -20 0 -13 -7 -20 -20
-20 -17 0 -20 -7 -20 -40 l0 -40 -45 0 c-38 0 -45 -3 -45 -20 0 -13 -7 -20
-20 -20 -13 0 -20 -7 -20 -20 0 -13 -7 -20 -20 -20 -17 0 -20 -7 -20 -40 0
-33 -3 -40 -20 -40 -13 0 -20 -7 -20 -20 0 -18 -7 -20 -60 -20 -53 0 -60 -2
-60 -20 0 -13 -7 -20 -20 -20 -17 0 -20 -7 -20 -45 0 -38 -3 -45 -20 -45 -13
0 -20 -7 -20 -20 0 -13 -7 -20 -20 -20 -13 0 -20 -7 -20 -20 0 -15 -7 -20 -25
-20 -18 0 -25 -5 -25 -20 0 -13 -7 -20 -20 -20 -13 0 -20 -7 -20 -20 0 -13 -7
-20 -20 -20 -13 0 -20 -7 -20 -20 0 -17 -7 -20 -40 -20 l-40 0 0 -60 0 -60
-40 0 -40 0 0 -45 0 -45 -40 0 c-33 0 -40 -3 -40 -20 0 -13 -7 -20 -20 -20
-13 0 -20 -7 -20 -20 0 -15 -7 -20 -25 -20 -18 0 -25 -5 -25 -20 0 -13 -7 -20
-20 -20 -13 0 -20 -7 -20 -20 0 -13 -7 -20 -20 -20 -13 0 -20 -7 -20 -20 0
-17 -7 -20 -40 -20 -33 0 -40 -3 -40 -20 0 -13 -7 -20 -20 -20 -13 0 -20 -7
-20 -20 0 -17 -7 -20 -40 -20 l-40 0 0 -45 0 -45 -60 0 c-53 0 -60 -2 -60 -20
0 -15 -7 -20 -25 -20 -18 0 -25 -5 -25 -20 0 -13 -7 -20 -20 -20 -13 0 -20 -7
-20 -20 0 -17 -7 -20 -40 -20 -33 0 -40 -3 -40 -20 0 -13 -7 -20 -20 -20 -13
0 -20 -7 -20 -20 0 -13 -7 -20 -20 -20 -13 0 -20 -7 -20 -20 0 -17 -7 -20 -40
-20 -33 0 -40 -3 -40 -20 0 -13 -7 -20 -20 -20 -13 0 -20 -7 -20 -20 0 -13 -7
-20 -20 -20 -13 0 -20 -7 -20 -20 0 -15 -7 -20 -25 -20 -18 0 -25 -5 -25 -20
0 -13 -7 -20 -20 -20 -15 0 -20 -7 -20 -25 0 -18 -5 -25 -20 -25 -13 0 -20 -7
-20 -20 0 -17 -7 -20 -40 -20 -33 0 -40 -3 -40 -20 0 -13 -7 -20 -20 -20 -13
0 -20 -7 -20 -20 0 -13 -7 -20 -20 -20 -13 0 -20 -7 -20 -20 0 -13 -7 -20 -20
-20 -13 0 -20 -7 -20 -20 0 -13 -7 -20 -20 -20 -13 0 -20 -7 -20 -20 0 -17 -7
-20 -40 -20 -33 0 -40 -3 -40 -20 0 -15 -7 -20 -25 -20 -18 0 -25 -5 -25 -20
0 -13 -7 -20 -20 -20 -13 0 -20 -7 -20 -20 0 -13 -7 -20 -20 -20 -15 0 -20 -7
-20 -25 0 -22 -4 -25 -40 -25 -33 0 -40 -3 -40 -20 0 -17 -7 -20 -40 -20 -33
0 -40 -3 -40 -20 0 -17 -7 -20 -40 -20 -33 0 -40 -3 -40 -20 0 -17 -7 -20 -45
-20 -38 0 -45 -3 -45 -20 0 -17 -7 -20 -40 -20 -33 0 -40 -3 -40 -20 0 -18 -7
-20 -60 -20 -53 0 -60 -2 -60 -20 0 -17 -7 -20 -40 -20 -33 0 -40 -3 -40 -20
0 -18 -7 -20 -65 -20 -58 0 -65 -2 -65 -20 0 -17 -7 -20 -40 -20 -33 0 -40 -3
-40 -20 0 -18 -7 -20 -80 -20 -73 0 -80 2 -80 20 0 13 -7 20 -20 20 -13 0 -20
-7 -20 -20 0 -17 -7 -20 -40 -20 -33 0 -40 -3 -40 -20 0 -19 -7 -20 -145 -20
l-145 0 0 -45 c0 -38 -3 -45 -20 -45 -13 0 -20 -7 -20 -20 0 -13 -7 -20 -20
-20 -13 0 -20 7 -20 20 0 13 -7 20 -20 20 -13 0 -20 -7 -20 -20 0 -13 -7 -20
-20 -20 -17 0 -20 -7 -20 -40 l0 -40 -65 0 c-58 0 -65 -2 -65 -20 0 -18 -7
-20 -80 -20 -73 0 -80 -2 -80 -20 0 -13 -7 -20 -20 -20 -13 0 -20 7 -20 20 0
17 -7 20 -40 20 -33 0 -40 -3 -40 -20 0 -17 -7 -20 -45 -20 -38 0 -45 -3 -45
-20 0 -17 -7 -20 -40 -20 -33 0 -40 -3 -40 -20 0 -17 -7 -20 -40 -20 -33 0
-40 -3 -40 -20 0 -19 -7 -20 -225 -20 l-225 0 0 -25 c0 -18 -5 -25 -20 -25
-15 0 -20 7 -20 25 l0 25 -330 0 c-323 0 -330 0 -330 20 0 19 -7 20 -120 20
-113 0 -120 1 -120 20 0 19 -7 20 -105 20 -98 0 -105 1 -105 20 0 18 -7 20
-60 20 -53 0 -60 2 -60 20 0 18 -7 20 -80 20 -73 0 -80 2 -80 20 0 18 -7 20
-85 20 -78 0 -85 2 -85 20 0 18 -7 20 -80 20 -73 0 -80 2 -80 20 0 18 -7 20
-60 20 -53 0 -60 2 -60 20 0 18 -7 20 -85 20 -78 0 -85 2 -85 20 0 19 -7 20
-120 20 -113 0 -120 -1 -120 -20 0 -13 7 -20 20 -20 13 0 20 -7 20 -20 0 -17
7 -20 40 -20 33 0 40 -3 40 -20 0 -18 7 -20 60 -20 53 0 60 -2 60 -20 0 -17 7
-20 40 -20 33 0 40 -3 40 -20 0 -17 7 -20 45 -20 38 0 45 -3 45 -20 0 -18 7
-20 60 -20 53 0 60 -2 60 -20 0 -18 7 -20 60 -20 53 0 60 -2 60 -20 0 -18 7
-20 85 -20 78 0 85 -2 85 -20 0 -18 7 -20 60 -20 57 0 60 -1 60 -25 l0 -25
140 0 c133 0 140 -1 140 -20 0 -19 7 -20 145 -20 138 0 145 -1 145 -20 0 -18
7 -20 85 -20 78 0 85 -2 85 -20 0 -13 7 -20 20 -20 13 0 20 7 20 20 0 13 7 20
20 20 13 0 20 -7 20 -20 0 -19 7 -20 265 -20 258 0 265 -1 265 -20 0 -18 7
-20 60 -20 53 0 60 2 60 20 0 17 7 20 40 20 33 0 40 -3 40 -20 0 -15 7 -20 25
-20 18 0 25 5 25 20 0 18 7 20 80 20 73 0 80 -2 80 -20 0 -13 7 -20 20 -20 13
0 20 7 20 20 0 17 7 20 40 20 33 0 40 -3 40 -20 0 -17 7 -20 40 -20 33 0 40 3
40 20 0 19 7 20 205 20 198 0 205 1 205 20 0 13 7 20 20 20 13 0 20 -7 20 -20
0 -18 7 -20 65 -20 58 0 65 2 65 20 0 18 7 20 80 20 73 0 80 2 80 20 0 18 7
20 60 20 53 0 60 2 60 20 0 18 7 20 65 20 63 0 65 1 65 25 0 18 5 25 20 25 15
0 20 -7 20 -25 0 -22 4 -25 40 -25 36 0 40 3 40 25 0 18 5 25 20 25 13 0 20 7
20 20 0 17 7 20 40 20 33 0 40 3 40 20 0 18 7 20 65 20 58 0 65 2 65 20 0 17
7 20 40 20 33 0 40 3 40 20 0 17 7 20 40 20 33 0 40 3 40 20 0 17 7 20 40 20
l40 0 0 60 c0 53 2 60 20 60 13 0 20 -7 20 -20 0 -13 7 -20 20 -20 17 0 20 7
20 40 l0 40 65 0 65 0 0 45 0 45 40 0 c33 0 40 3 40 20 0 18 7 20 60 20 53 0
60 2 60 20 0 13 7 20 20 20 13 0 20 7 20 20 0 13 7 20 20 20 13 0 20 7 20 20
0 18 7 20 65 20 58 0 65 2 65 20 0 13 7 20 20 20 13 0 20 7 20 20 0 18 7 20
60 20 l60 0 0 40 0 40 40 0 c33 0 40 3 40 20 0 13 7 20 20 20 15 0 20 7 20 25
0 18 5 25 20 25 13 0 20 7 20 20 0 17 7 20 45 20 38 0 45 3 45 20 0 18 7 20
60 20 l60 0 0 40 0 40 40 0 40 0 0 40 c0 33 3 40 20 40 17 0 20 7 20 40 l0 40
40 0 c33 0 40 3 40 20 0 13 7 20 20 20 15 0 20 7 20 25 0 20 5 25 25 25 18 0
25 5 25 20 0 13 7 20 20 20 13 0 20 7 20 20 0 18 7 20 60 20 53 0 60 2 60 20
0 13 7 20 20 20 17 0 20 7 20 40 l0 40 40 0 c33 0 40 3 40 20 0 13 7 20 20 20
13 0 20 7 20 20 0 17 7 20 40 20 l40 0 0 40 0 40 45 0 c38 0 45 3 45 20 0 17
7 20 40 20 36 0 40 3 40 25 0 18 5 25 20 25 13 0 20 7 20 20 0 13 7 20 20 20
13 0 20 7 20 20 0 13 7 20 20 20 13 0 20 7 20 20 0 17 7 20 40 20 33 0 40 3
40 20 0 18 7 20 65 20 l65 0 0 60 c0 53 2 60 20 60 17 0 20 7 20 40 l0 40 40
0 c36 0 40 3 40 25 0 18 5 25 20 25 17 0 20 7 20 40 l0 40 60 0 c53 0 60 2 60
20 0 13 7 20 20 20 13 0 20 7 20 20 0 15 7 20 25 20 23 0 25 4 25 40 0 33 3
40 20 40 13 0 20 -7 20 -20 0 -13 7 -20 20 -20 13 0 20 7 20 20 0 13 7 20 20
20 13 0 20 7 20 20 0 13 7 20 20 20 13 0 20 -7 20 -20 0 -13 7 -20 20 -20 13
0 20 7 20 20 0 13 -7 20 -20 20 -17 0 -20 7 -20 40 0 33 3 40 20 40 15 0 20 7
20 25 0 23 -4 25 -40 25 -33 0 -40 3 -40 20 0 13 7 20 20 20 13 0 20 7 20 20
0 13 7 20 20 20 13 0 20 -7 20 -20 0 -13 7 -20 20 -20 13 0 20 7 20 20 0 13 7
20 20 20 13 0 20 -7 20 -20 0 -13 7 -20 20 -20 13 0 20 -7 20 -20 0 -13 7 -20
20 -20 13 0 20 7 20 20 0 13 7 20 20 20 13 0 20 7 20 20 0 17 -7 20 -40 20
l-40 0 0 40 c0 33 3 40 20 40 17 0 20 7 20 40 0 33 3 40 20 40 13 0 20 -7 20
-20 0 -18 7 -20 65 -20 58 0 65 2 65 20 0 13 7 20 20 20 18 0 20 7 20 60 l0
60 40 0 40 0 0 45 0 45 40 0 40 0 0 40 c0 33 3 40 20 40 18 0 20 7 20 60 0 53
2 60 20 60 13 0 20 7 20 20 0 15 7 20 25 20 23 0 25 4 25 40 0 33 3 40 20 40
13 0 20 7 20 20 0 13 7 20 20 20 17 0 20 7 20 45 l0 45 40 0 40 0 0 40 c0 33
3 40 20 40 13 0 20 7 20 20 0 13 7 20 20 20 13 0 20 7 20 20 0 13 7 20 20 20
13 0 20 7 20 20 0 17 -7 20 -40 20 -33 0 -40 3 -40 20 0 17 7 20 40 20 33 0
40 3 40 20 0 13 7 20 20 20 17 0 20 7 20 40 0 33 3 40 20 40 15 0 20 7 20 25
0 18 5 25 20 25 13 0 20 7 20 20 0 15 7 20 25 20 23 0 25 4 25 40 0 33 3 40
20 40 13 0 20 7 20 20 0 13 7 20 20 20 13 0 20 7 20 20 0 13 -7 20 -20 20 -13
0 -20 7 -20 20 0 17 7 20 40 20 l40 0 0 40 c0 33 3 40 20 40 18 0 20 7 20 65
0 58 2 65 20 65 18 0 20 7 20 60 0 53 2 60 20 60 18 0 20 7 20 80 0 73 2 80
20 80 17 0 20 7 20 40 0 33 3 40 20 40 17 0 20 7 20 45 0 38 3 45 20 45 18 0
20 7 20 60 0 57 1 60 25 60 24 0 25 3 25 60 0 53 2 60 20 60 17 0 20 7 20 40
0 33 3 40 20 40 17 0 20 7 20 45 0 38 3 45 20 45 17 0 20 7 20 40 0 33 3 40
20 40 13 0 20 7 20 20 0 13 -7 20 -20 20 -13 0 -20 7 -20 20 0 13 7 20 20 20
13 0 20 7 20 20 0 13 7 20 20 20 18 0 20 7 20 60 0 53 2 60 20 60 15 0 20 7
20 25 0 18 5 25 20 25 17 0 20 7 20 40 0 33 3 40 20 40 13 0 20 7 20 20 0 13
-7 20 -20 20 -13 0 -20 7 -20 20 0 13 7 20 20 20 18 0 20 7 20 80 0 73 -2 80
-20 80 -13 0 -20 7 -20 20 0 13 7 20 20 20 18 0 20 7 20 65 0 58 2 65 20 65
13 0 20 7 20 20 0 13 -7 20 -20 20 -17 0 -20 7 -20 40 0 33 3 40 20 40 19 0
20 7 20 100 0 93 -1 100 -20 100 -15 0 -20 7 -20 25 0 18 5 25 20 25 13 0 20
7 20 20 0 13 7 20 20 20 19 0 20 7 20 160 l0 160 25 0 25 0 0 105 0 105 -25 0
c-18 0 -25 5 -25 20 0 15 7 20 25 20 24 0 25 3 25 60 0 53 2 60 20 60 13 0 20
7 20 20 0 13 -7 20 -20 20 -13 0 -20 7 -20 20 0 17 7 20 40 20 l40 0 0 45 c0
38 -3 45 -20 45 -17 0 -20 7 -20 40 0 33 3 40 20 40 13 0 20 7 20 20 0 13 7
20 20 20 17 0 20 7 20 40 0 33 -3 40 -20 40 -13 0 -20 7 -20 20 0 13 7 20 20
20 13 0 20 7 20 20 0 13 -7 20 -20 20 -13 0 -20 7 -20 20 0 13 7 20 20 20 19
0 20 7 20 125 0 118 1 125 20 125 17 0 20 7 20 40 0 33 3 40 20 40 18 0 20 7
20 60 0 53 2 60 20 60 18 0 20 7 20 65 0 58 2 65 20 65 13 0 20 7 20 20 0 13
-7 20 -20 20 -13 0 -20 7 -20 20 0 13 7 20 20 20 13 0 20 7 20 20 0 13 7 20
20 20 18 0 20 7 20 60 0 53 2 60 20 60 18 0 20 7 20 85 0 84 0 85 25 85 18 0
25 5 25 20 0 13 7 20 20 20 17 0 20 7 20 40 0 33 3 40 20 40 19 0 20 7 20 125
0 118 1 125 20 125 18 0 20 7 20 60 0 53 2 60 20 60 17 0 20 7 20 40 0 33 3
40 20 40 18 0 20 7 20 60 0 53 2 60 20 60 19 0 20 7 20 105 0 98 1 105 20 105
17 0 20 -7 20 -40 0 -33 3 -40 20 -40 19 0 20 -7 20 -165 0 -158 1 -165 20
-165 13 0 20 -7 20 -20 0 -15 7 -20 25 -20 18 0 25 -5 25 -20 0 -13 7 -20 20
-20 13 0 20 7 20 20 0 13 7 20 20 20 13 0 20 7 20 20 0 13 7 20 20 20 18 0 20
7 20 80 0 73 2 80 20 80 18 0 20 7 20 85 0 78 2 85 20 85 17 0 20 7 20 40 0
33 3 40 20 40 13 0 20 -7 20 -20 0 -17 7 -20 40 -20 l40 0 0 120 c0 113 -1
120 -20 120 -20 0 -20 7 -20 495 0 488 0 495 -20 495 -18 0 -20 7 -20 80 0 73
-2 80 -20 80 -18 0 -20 7 -20 60 0 53 -2 60 -20 60 -19 0 -20 7 -20 165 0 158
1 165 20 165 17 0 20 7 20 40 0 33 3 40 20 40 18 0 20 7 20 65 0 58 -2 65 -20
65 -18 0 -20 7 -20 60 0 53 -2 60 -20 60 -17 0 -20 7 -20 40 0 33 -3 40 -20
40 -18 0 -20 7 -20 60 0 53 -2 60 -20 60 -17 0 -20 7 -20 40 0 33 -3 40 -20
40 -17 0 -20 7 -20 45 0 38 -3 45 -20 45 -19 0 -20 7 -20 100 l0 100 -25 0
c-25 0 -25 1 -25 85 0 84 0 85 25 85 23 0 25 4 25 40 0 36 -2 40 -25 40 -24 0
-25 3 -25 60 0 53 -2 60 -20 60 -18 0 -20 7 -20 80 0 73 2 80 20 80 17 0 20
-7 20 -40 0 -36 3 -40 25 -40 24 0 25 -3 25 -60 0 -53 2 -60 20 -60 17 0 20
-7 20 -40 0 -33 3 -40 20 -40 17 0 20 7 20 40 0 33 -3 40 -20 40 -18 0 -20 7
-20 80 0 73 -2 80 -20 80 -18 0 -20 7 -20 65 0 63 -1 65 -25 65 -22 0 -25 4
-25 40 0 33 -3 40 -20 40 -18 0 -20 7 -20 60 0 53 -2 60 -20 60 -13 0 -20 7
-20 20 0 13 -7 20 -20 20 -17 0 -20 7 -20 40 0 33 -3 40 -20 40 -18 0 -20 7
-20 85 0 78 -2 85 -20 85 -18 0 -20 7 -20 60 0 53 -2 60 -20 60 -17 0 -20 7
-20 40 l0 40 40 0 40 0 0 -40 c0 -33 3 -40 20 -40 13 0 20 -7 20 -20 0 -13 7
-20 20 -20 13 0 20 -7 20 -20 0 -13 7 -20 20 -20 13 0 20 -7 20 -20 0 -13 7
-20 20 -20 13 0 20 -7 20 -20 0 -15 7 -20 25 -20 23 0 25 -4 25 -45 0 -38 3
-45 20 -45 13 0 20 -7 20 -20 0 -13 7 -20 20 -20 13 0 20 -7 20 -20 0 -13 7
-20 20 -20 13 0 20 -7 20 -20 0 -13 7 -20 20 -20 13 0 20 -7 20 -20 0 -13 7
-20 20 -20 13 0 20 -7 20 -20 0 -13 7 -20 20 -20 13 0 20 -7 20 -20 0 -13 7
-20 20 -20 13 0 20 -7 20 -20 0 -13 7 -20 20 -20 19 0 20 7 20 100 0 93 -1
100 -20 100 -18 0 -20 7 -20 65 0 58 -2 65 -20 65 -18 0 -20 7 -20 60 0 53 -2
60 -20 60 -17 0 -20 7 -20 40 0 33 -3 40 -20 40 -17 0 -20 7 -20 40 0 33 -3
40 -20 40 -13 0 -20 7 -20 20 0 13 -7 20 -20 20 -17 0 -20 7 -20 45 0 38 -3
45 -20 45 -13 0 -20 7 -20 20 0 13 -7 20 -20 20 -17 0 -20 7 -20 40 0 36 -2
40 -25 40 -18 0 -25 5 -25 20 0 13 -7 20 -20 20 -18 0 -20 7 -20 60 0 53 -2
60 -20 60 -17 0 -20 7 -20 40 0 33 3 40 20 40 13 0 20 -7 20 -20 0 -13 7 -20
20 -20 13 0 20 -7 20 -20 0 -17 7 -20 45 -20 38 0 45 -3 45 -20 0 -17 7 -20
40 -20 l40 0 0 40 c0 33 -3 40 -20 40 -17 0 -20 7 -20 40 0 33 -3 40 -20 40
-15 0 -20 7 -20 25 0 18 -5 25 -20 25 -17 0 -20 7 -20 40 0 36 -2 40 -25 40
-18 0 -25 5 -25 20 0 13 -7 20 -20 20 -13 0 -20 7 -20 20 0 13 -7 20 -20 20
-13 0 -20 7 -20 20 0 13 -7 20 -20 20 -13 0 -20 7 -20 20 0 13 -7 20 -20 20
-13 0 -20 7 -20 20 0 13 -7 20 -20 20 -13 0 -20 7 -20 20 0 13 -7 20 -20 20
-13 0 -20 7 -20 20 0 13 -7 20 -20 20 -15 0 -20 7 -20 25 0 18 -5 25 -20 25
-13 0 -20 7 -20 20 0 13 -7 20 -20 20 -13 0 -20 7 -20 20 0 15 -7 20 -25 20
-18 0 -25 5 -25 20 0 13 -7 20 -20 20 -13 0 -20 7 -20 20 0 17 -7 20 -40 20
-33 0 -40 3 -40 20 0 13 -7 20 -20 20 -13 0 -20 7 -20 20 0 17 -7 20 -40 20
-33 0 -40 3 -40 20 0 13 -7 20 -20 20 -13 0 -20 7 -20 20 0 13 -7 20 -20 20
-13 0 -20 7 -20 20 0 13 -7 20 -20 20 -13 0 -20 7 -20 20 0 15 -7 20 -25 20
-20 0 -25 5 -25 25 0 18 -5 25 -20 25 -13 0 -20 7 -20 20 0 13 -7 20 -20 20
-13 0 -20 7 -20 20 0 13 -7 20 -20 20 -17 0 -20 7 -20 40 0 33 -3 40 -20 40
-13 0 -20 7 -20 20 0 13 -7 20 -20 20 -13 0 -20 7 -20 20 0 13 -7 20 -20 20
-13 0 -20 7 -20 20 0 17 -7 20 -40 20 -33 0 -40 3 -40 20 0 13 -7 20 -20 20
-13 0 -20 7 -20 20 0 13 -7 20 -20 20 -15 0 -20 7 -20 25 0 20 -5 25 -25 25
-22 0 -25 4 -25 40 0 33 -3 40 -20 40 -13 0 -20 7 -20 20 0 13 -7 20 -20 20
-13 0 -20 7 -20 20 0 17 7 20 40 20 33 0 40 -3 40 -20 0 -15 7 -20 25 -20 18
0 25 -5 25 -20 0 -17 7 -20 40 -20 33 0 40 -3 40 -20 0 -13 7 -20 20 -20 13 0
20 -7 20 -20 0 -13 7 -20 20 -20 15 0 20 -7 20 -25 0 -22 4 -25 40 -25 33 0
40 -3 40 -20 0 -13 7 -20 20 -20 13 0 20 -7 20 -20 0 -17 7 -20 40 -20 33 0
40 -3 40 -20 0 -17 7 -20 45 -20 38 0 45 -3 45 -20 0 -17 7 -20 40 -20 33 0
40 -3 40 -20 0 -13 7 -20 20 -20 13 0 20 -7 20 -20 0 -13 7 -20 20 -20 13 0
20 -7 20 -20 0 -13 7 -20 20 -20 13 0 20 -7 20 -20 0 -17 7 -20 40 -20 l40 0
0 -45 c0 -38 3 -45 20 -45 13 0 20 -7 20 -20 0 -17 7 -20 45 -20 38 0 45 -3
45 -20 0 -13 7 -20 20 -20 13 0 20 -7 20 -20 0 -13 7 -20 20 -20 13 0 20 -7
20 -20 0 -13 7 -20 20 -20 13 0 20 -7 20 -20 0 -13 7 -20 20 -20 17 0 20 -7
20 -40 l0 -40 80 0 c73 0 80 2 80 20 0 13 -7 20 -20 20 -19 0 -20 7 -20 120 0
113 1 120 20 120 15 0 20 7 20 25 0 18 -5 25 -20 25 -18 0 -20 7 -20 60 0 53
-2 60 -20 60 -18 0 -20 7 -20 60 0 53 -2 60 -20 60 -17 0 -20 7 -20 40 0 33
-3 40 -20 40 -17 0 -20 7 -20 45 0 38 -3 45 -20 45 -17 0 -20 7 -20 40 0 33
-3 40 -20 40 -13 0 -20 7 -20 20 0 13 -7 20 -20 20 -17 0 -20 7 -20 40 0 33
-3 40 -20 40 -13 0 -20 7 -20 20 0 15 -7 20 -25 20 -18 0 -25 5 -25 20 0 13
-7 20 -20 20 -13 0 -20 7 -20 20 0 13 -7 20 -20 20 -13 0 -20 7 -20 20 0 13
-7 20 -20 20 -15 0 -20 7 -20 25 0 18 -5 25 -20 25 -13 0 -20 7 -20 20 0 17
-7 20 -40 20 -33 0 -40 3 -40 20 0 13 -7 20 -20 20 -13 0 -20 7 -20 20 0 17
-7 20 -40 20 -33 0 -40 3 -40 20 0 15 -7 20 -25 20 -18 0 -25 5 -25 20 0 13
-7 20 -20 20 -13 0 -20 7 -20 20 0 13 -7 20 -20 20 -13 0 -20 7 -20 20 0 13
-7 20 -20 20 -13 0 -20 7 -20 20 0 17 -7 20 -40 20 -33 0 -40 3 -40 20 0 17
-7 20 -40 20 -33 0 -40 3 -40 20 0 17 -7 20 -40 20 -36 0 -40 3 -40 25 0 24
-2 25 -65 25 -58 0 -65 2 -65 20 0 17 -7 20 -40 20 -33 0 -40 3 -40 20 0 17
-7 20 -40 20 -33 0 -40 3 -40 20 0 18 -7 20 -60 20 -53 0 -60 2 -60 20 0 17
-7 20 -45 20 -38 0 -45 3 -45 20 0 17 -7 20 -40 20 -33 0 -40 3 -40 20 0 13
-7 20 -20 20 -13 0 -20 7 -20 20 0 13 -7 20 -20 20 -13 0 -20 7 -20 20 0 17
-7 20 -40 20 -33 0 -40 3 -40 20 0 13 -7 20 -20 20 -15 0 -20 7 -20 25 0 23
-4 25 -40 25 -33 0 -40 3 -40 20 0 13 -7 20 -20 20 -13 0 -20 7 -20 20 0 15
-7 20 -25 20 -18 0 -25 5 -25 20 0 13 -7 20 -20 20 -13 0 -20 7 -20 20 0 13
-7 20 -20 20 -13 0 -20 7 -20 20 0 13 -7 20 -20 20 -13 0 -20 7 -20 20 0 13
-7 20 -20 20 -13 0 -20 7 -20 20 0 13 -7 20 -20 20 -13 0 -20 7 -20 20 0 13
-7 20 -20 20 -13 0 -20 7 -20 20 0 17 -7 20 -40 20 -33 0 -40 3 -40 20 0 13
-7 20 -20 20 -15 0 -20 7 -20 25 0 20 -5 25 -25 25 -18 0 -25 5 -25 20 0 13
-7 20 -20 20 -13 0 -20 7 -20 20 0 13 -7 20 -20 20 -13 0 -20 7 -20 20 0 17
-7 20 -40 20 -33 0 -40 3 -40 20 0 13 -7 20 -20 20 -13 0 -20 7 -20 20 0 13
-7 20 -20 20 -13 0 -20 7 -20 20 0 17 -7 20 -40 20 -33 0 -40 3 -40 20 0 13
-7 20 -20 20 -13 0 -20 7 -20 20 0 13 -7 20 -20 20 -13 0 -20 7 -20 20 0 17
-7 20 -45 20 -41 0 -45 2 -45 25 0 24 2 25 65 25 63 0 65 -1 65 -25 0 -24 3
-25 60 -25 53 0 60 -2 60 -20 0 -13 7 -20 20 -20 13 0 20 -7 20 -20 0 -18 7
-20 60 -20 53 0 60 -2 60 -20 0 -13 7 -20 20 -20 13 0 20 -7 20 -20 0 -13 7
-20 20 -20 13 0 20 -7 20 -20 0 -17 7 -20 45 -20 38 0 45 -3 45 -20 0 -13 7
-20 20 -20 13 0 20 -7 20 -20 0 -13 7 -20 20 -20 13 0 20 -7 20 -20 0 -13 7
-20 20 -20 13 0 20 -7 20 -20 0 -13 7 -20 20 -20 15 0 20 -7 20 -25 0 -18 5
-25 20 -25 13 0 20 -7 20 -20 0 -13 7 -20 20 -20 13 0 20 -7 20 -20 0 -13 7
-20 20 -20 13 0 20 -7 20 -20 0 -18 7 -20 65 -20 l65 0 0 105 c0 98 -1 105
-20 105 -13 0 -20 7 -20 20 0 15 -7 20 -25 20 -18 0 -25 5 -25 20 0 13 -7 20
-20 20 -13 0 -20 7 -20 20 0 13 -7 20 -20 20 -13 0 -20 7 -20 20 0 13 -7 20
-20 20 -13 0 -20 7 -20 20 0 13 -7 20 -20 20 -13 0 -20 7 -20 20 0 13 -7 20
-20 20 -13 0 -20 7 -20 20 0 17 -7 20 -40 20 -33 0 -40 3 -40 20 0 13 -7 20
-20 20 -15 0 -20 7 -20 25 0 23 -4 25 -45 25 -38 0 -45 3 -45 20 0 13 -7 20
-20 20 -13 0 -20 7 -20 20 0 17 -7 20 -40 20 -33 0 -40 3 -40 20 0 17 -7 20
-40 20 -33 0 -40 3 -40 20 0 17 -7 20 -40 20 -33 0 -40 3 -40 20 0 13 -7 20
-20 20 -13 0 -20 7 -20 20 0 17 -7 20 -40 20 -33 0 -40 3 -40 20 0 17 -7 20
-45 20 -38 0 -45 3 -45 20 0 17 -7 20 -40 20 -33 0 -40 3 -40 20 0 18 -7 20
-80 20 -79 0 -80 0 -80 25 l0 25 140 0 140 0 0 40 0 40 -40 0 c-33 0 -40 3
-40 20 0 17 -7 20 -40 20 -33 0 -40 3 -40 20 0 18 -7 20 -80 20 -73 0 -80 2
-80 20 0 18 -7 20 -85 20 -78 0 -85 2 -85 20 0 19 -7 20 -100 20 -93 0 -100 1
-100 20 0 17 -7 20 -40 20 -33 0 -40 -3 -40 -20 0 -18 -7 -20 -85 -20 -78 0
-85 2 -85 20 0 19 -7 20 -225 20 -218 0 -225 1 -225 20 0 18 -7 20 -80 20 -73
0 -80 2 -80 20 0 19 -7 20 -125 20 -118 0 -125 1 -125 20 0 19 -7 20 -140 20
l-140 0 0 25 0 25 -105 0 c-98 0 -105 1 -105 20 0 19 -7 20 -205 20 -198 0
-205 1 -205 20 0 19 -7 20 -225 20 -218 0 -225 1 -225 20 0 20 -7 20 -370 20
-363 0 -370 0 -370 20 0 18 7 20 65 20 l65 0 0 40 c0 33 3 40 20 40 13 0 20
-7 20 -20 0 -13 7 -20 20 -20 13 0 20 -7 20 -20 0 -13 7 -20 20 -20 17 0 20 7
20 40 l0 40 120 0 c113 0 120 1 120 20 0 20 7 20 330 20 323 0 330 0 330 20 0
13 7 20 20 20 13 0 20 -7 20 -20 0 -17 7 -20 40 -20 33 0 40 3 40 20 0 18 7
20 65 20 58 0 65 2 65 20 0 13 7 20 20 20 18 0 20 7 20 85 0 78 -2 85 -20 85
-13 0 -20 7 -20 20 0 15 -7 20 -25 20 -18 0 -25 5 -25 20 0 17 -7 20 -40 20
-33 0 -40 3 -40 20 0 18 -7 20 -60 20 -53 0 -60 2 -60 20 0 18 -7 20 -80 20
-73 0 -80 2 -80 20 0 19 -7 20 -125 20 -118 0 -125 1 -125 20 0 18 -7 20 -80
20 -73 0 -80 2 -80 20 0 19 -7 20 -145 20 l-145 0 0 25 c0 23 -4 25 -40 25
-33 0 -40 3 -40 20 0 13 7 20 20 20 13 0 20 7 20 20 0 20 -7 20 -350 20 -343
0 -350 0 -350 20 0 17 -7 20 -40 20 -33 0 -40 -3 -40 -20 0 -17 -7 -20 -40
-20 -33 0 -40 3 -40 20 0 20 -7 20 -310 20 -303 0 -310 0 -310 20 0 18 -7 20
-80 20 -73 0 -80 -2 -80 -20 0 -18 -7 -20 -60 -20 -53 0 -60 2 -60 20 0 13 -7
20 -20 20 -13 0 -20 -7 -20 -20 0 -13 -7 -20 -20 -20 -13 0 -20 7 -20 20 0 17
-7 20 -45 20 -38 0 -45 -3 -45 -20 0 -18 -7 -20 -60 -20 -53 0 -60 2 -60 20 0
18 -7 20 -80 20 -73 0 -80 2 -80 20 0 19 7 20 205 20 198 0 205 1 205 20 0 13
7 20 20 20 13 0 20 7 20 20 0 19 7 20 100 20 93 0 100 1 100 20 0 19 -7 20
-100 20 -93 0 -100 -1 -100 -20z m-2750 -570 c0 -13 -7 -20 -20 -20 -13 0 -20
-7 -20 -20 0 -17 -7 -20 -40 -20 -33 0 -40 3 -40 20 0 17 7 20 40 20 33 0 40
3 40 20 0 13 7 20 20 20 13 0 20 -7 20 -20z m4140 -370 c0 -13 7 -20 20 -20
13 0 20 7 20 20 0 13 7 20 20 20 13 0 20 -7 20 -20 0 -13 -7 -20 -20 -20 -13
0 -20 -7 -20 -20 0 -18 -7 -20 -60 -20 l-60 0 0 40 0 40 40 0 c33 0 40 -3 40
-20z m-330 -40 c0 -18 -7 -20 -60 -20 -53 0 -60 2 -60 20 0 18 7 20 60 20 53
0 60 -2 60 -20z m-5160 -330 c0 -13 -7 -20 -20 -20 -13 0 -20 7 -20 20 0 13 7
20 20 20 13 0 20 -7 20 -20z m11140 -2660 c0 -13 -7 -20 -20 -20 -13 0 -20 7
-20 20 0 13 7 20 20 20 13 0 20 -7 20 -20z m-14210 -1350 c0 -13 -7 -20 -20
-20 -13 0 -20 7 -20 20 0 13 7 20 20 20 13 0 20 -7 20 -20z m15440 -125 c0
-18 5 -25 20 -25 13 0 20 -7 20 -20 0 -13 -7 -20 -20 -20 -13 0 -20 7 -20 20
0 13 -7 20 -20 20 -15 0 -20 7 -20 25 0 18 5 25 20 25 15 0 20 -7 20 -25z m80
-1290 c0 -38 -3 -45 -20 -45 -17 0 -20 7 -20 45 0 38 3 45 20 45 17 0 20 -7
20 -45z m40 -2765 c0 -173 -1 -180 -20 -180 -19 0 -20 7 -20 180 0 173 1 180
20 180 19 0 20 -7 20 -180z m-820 -3150 c0 -13 -7 -20 -20 -20 -13 0 -20 7
-20 20 0 13 7 20 20 20 13 0 20 -7 20 -20z m-690 -2670 c0 -13 -7 -20 -20 -20
-13 0 -20 7 -20 20 0 13 7 20 20 20 13 0 20 -7 20 -20z m-570 -450 c0 -15 -7
-20 -25 -20 -18 0 -25 5 -25 20 0 15 7 20 25 20 18 0 25 -5 25 -20z m-9340
-2540 c0 -13 7 -20 20 -20 13 0 20 -7 20 -20 0 -17 -7 -20 -40 -20 l-40 0 0
40 c0 33 3 40 20 40 13 0 20 -7 20 -20z m120 -80 c0 -13 -7 -20 -20 -20 -13 0
-20 7 -20 20 0 13 7 20 20 20 13 0 20 -7 20 -20z"/>
<path d="M10370 20200 c0 -17 7 -20 40 -20 33 0 40 3 40 20 0 17 -7 20 -40 20
-33 0 -40 -3 -40 -20z"/>
<path d="M10610 20200 c0 -17 7 -20 40 -20 33 0 40 3 40 20 0 17 -7 20 -40 20
-33 0 -40 -3 -40 -20z"/>
<path d="M10980 20200 c0 -18 7 -20 80 -20 73 0 80 2 80 20 0 18 -7 20 -80 20
-73 0 -80 -2 -80 -20z"/>
<path d="M10080 20160 c0 -18 7 -20 80 -20 73 0 80 2 80 20 0 18 -7 20 -80 20
-73 0 -80 -2 -80 -20z"/>
<path d="M7620 19870 c0 -13 7 -20 20 -20 13 0 20 7 20 20 0 13 -7 20 -20 20
-13 0 -20 -7 -20 -20z"/>
<path d="M6880 19590 c0 -15 7 -20 25 -20 18 0 25 5 25 20 0 15 -7 20 -25 20
-18 0 -25 -5 -25 -20z"/>
<path d="M6800 19550 c0 -13 7 -20 20 -20 13 0 20 7 20 20 0 13 -7 20 -20 20
-13 0 -20 -7 -20 -20z"/>
<path d="M6720 19510 c0 -13 7 -20 20 -20 13 0 20 7 20 20 0 13 -7 20 -20 20
-13 0 -20 -7 -20 -20z"/>
<path d="M6640 19465 c0 -22 -4 -25 -40 -25 -33 0 -40 -3 -40 -20 0 -17 -7
-20 -45 -20 -38 0 -45 -3 -45 -20 0 -17 -7 -20 -40 -20 -33 0 -40 -3 -40 -20
0 -17 -7 -20 -40 -20 -33 0 -40 -3 -40 -20 0 -13 -7 -20 -20 -20 -13 0 -20 -7
-20 -20 0 -17 -7 -20 -40 -20 -33 0 -40 -3 -40 -20 0 -13 -7 -20 -20 -20 -13
0 -20 -7 -20 -20 0 -13 7 -20 20 -20 13 0 20 7 20 20 0 17 7 20 40 20 33 0 40
3 40 20 0 13 7 20 20 20 13 0 20 7 20 20 0 17 7 20 40 20 33 0 40 3 40 20 0
17 7 20 40 20 33 0 40 3 40 20 0 17 7 20 45 20 38 0 45 3 45 20 0 17 7 20 40
20 33 0 40 3 40 20 0 13 7 20 20 20 15 0 20 7 20 25 0 18 -5 25 -20 25 -15 0
-20 -7 -20 -25z"/>
<path d="M6070 19140 c0 -15 -7 -20 -25 -20 -18 0 -25 -5 -25 -20 0 -15 7 -20
25 -20 18 0 25 5 25 20 0 13 7 20 20 20 13 0 20 7 20 20 0 13 -7 20 -20 20
-13 0 -20 -7 -20 -20z"/>
<path d="M3730 16970 c0 -13 7 -20 20 -20 13 0 20 7 20 20 0 13 -7 20 -20 20
-13 0 -20 -7 -20 -20z"/>
<path d="M2830 15120 c0 -13 -7 -20 -20 -20 -13 0 -20 -7 -20 -20 0 -13 -7
-20 -20 -20 -13 0 -20 -7 -20 -20 0 -13 -7 -20 -20 -20 -13 0 -20 -7 -20 -20
0 -13 7 -20 20 -20 13 0 20 7 20 20 0 13 7 20 20 20 13 0 20 7 20 20 0 13 7
20 20 20 13 0 20 7 20 20 0 13 7 20 20 20 13 0 20 7 20 20 0 13 -7 20 -20 20
-13 0 -20 -7 -20 -20z"/>
<path d="M2620 14750 c0 -13 -7 -20 -20 -20 -13 0 -20 -7 -20 -20 0 -13 -7
-20 -20 -20 -13 0 -20 -7 -20 -20 0 -13 -7 -20 -20 -20 -17 0 -20 -7 -20 -40
0 -33 -3 -40 -20 -40 -13 0 -20 -7 -20 -20 0 -13 -7 -20 -20 -20 -13 0 -20 -7
-20 -20 0 -13 -7 -20 -20 -20 -13 0 -20 -7 -20 -20 0 -13 -7 -20 -20 -20 -13
0 -20 -7 -20 -20 0 -13 7 -20 20 -20 13 0 20 7 20 20 0 13 7 20 20 20 13 0 20
7 20 20 0 13 7 20 20 20 13 0 20 7 20 20 0 13 7 20 20 20 13 0 20 7 20 20 0
13 7 20 20 20 17 0 20 7 20 40 0 33 3 40 20 40 13 0 20 7 20 20 0 13 7 20 20
20 13 0 20 7 20 20 0 15 7 20 25 20 18 0 25 5 25 20 0 15 -7 20 -25 20 -18 0
-25 -5 -25 -20z"/>
<path d="M2300 14345 c0 -18 -5 -25 -20 -25 -13 0 -20 -7 -20 -20 0 -15 -7
-20 -25 -20 -18 0 -25 -5 -25 -20 0 -15 7 -20 25 -20 18 0 25 5 25 20 0 13 7
20 20 20 13 0 20 7 20 20 0 13 7 20 20 20 15 0 20 7 20 25 0 18 -5 25 -20 25
-15 0 -20 -7 -20 -25z"/>
<path d="M1930 11930 c0 -13 7 -20 20 -20 13 0 20 7 20 20 0 13 -7 20 -20 20
-13 0 -20 -7 -20 -20z"/>
<path d="M1970 10885 c0 -238 1 -245 20 -245 19 0 20 7 20 245 0 238 -1 245
-20 245 -19 0 -20 -7 -20 -245z"/>
<path d="M2050 10490 c0 -13 7 -20 20 -20 13 0 20 7 20 20 0 13 -7 20 -20 20
-13 0 -20 -7 -20 -20z"/>
<path d="M2010 10310 c0 -33 3 -40 20 -40 17 0 20 7 20 40 0 33 -3 40 -20 40
-17 0 -20 -7 -20 -40z"/>
<path d="M18110 9310 c0 -13 -7 -20 -20 -20 -13 0 -20 -7 -20 -20 0 -13 7 -20
20 -20 13 0 20 7 20 20 0 13 7 20 20 20 13 0 20 7 20 20 0 13 -7 20 -20 20
-13 0 -20 -7 -20 -20z"/>
</g>
</svg>
